G04 #@! TF.GenerationSoftware,KiCad,Pcbnew,8.0.5*
G04 #@! TF.CreationDate,2025-01-11T16:28:32+01:00*
G04 #@! TF.ProjectId,P1_Extender,50315f45-7874-4656-9e64-65722e6b6963,rev?*
G04 #@! TF.SameCoordinates,Original*
G04 #@! TF.FileFunction,Copper,L1,Top*
G04 #@! TF.FilePolarity,Positive*
%FSLAX46Y46*%
G04 Gerber Fmt 4.6, Leading zero omitted, Abs format (unit mm)*
G04 Created by KiCad (PCBNEW 8.0.5) date 2025-01-11 16:28:32*
%MOMM*%
%LPD*%
G01*
G04 APERTURE LIST*
G04 Aperture macros list*
%AMRoundRect*
0 Rectangle with rounded corners*
0 $1 Rounding radius*
0 $2 $3 $4 $5 $6 $7 $8 $9 X,Y pos of 4 corners*
0 Add a 4 corners polygon primitive as box body*
4,1,4,$2,$3,$4,$5,$6,$7,$8,$9,$2,$3,0*
0 Add four circle primitives for the rounded corners*
1,1,$1+$1,$2,$3*
1,1,$1+$1,$4,$5*
1,1,$1+$1,$6,$7*
1,1,$1+$1,$8,$9*
0 Add four rect primitives between the rounded corners*
20,1,$1+$1,$2,$3,$4,$5,0*
20,1,$1+$1,$4,$5,$6,$7,0*
20,1,$1+$1,$6,$7,$8,$9,0*
20,1,$1+$1,$8,$9,$2,$3,0*%
G04 Aperture macros list end*
G04 #@! TA.AperFunction,ComponentPad*
%ADD10C,1.600000*%
G04 #@! TD*
G04 #@! TA.AperFunction,ComponentPad*
%ADD11O,1.600000X1.600000*%
G04 #@! TD*
G04 #@! TA.AperFunction,ComponentPad*
%ADD12R,1.600000X1.600000*%
G04 #@! TD*
G04 #@! TA.AperFunction,ComponentPad*
%ADD13R,2.000000X2.000000*%
G04 #@! TD*
G04 #@! TA.AperFunction,ComponentPad*
%ADD14O,2.000000X1.600000*%
G04 #@! TD*
G04 #@! TA.AperFunction,ComponentPad*
%ADD15RoundRect,0.250000X0.510000X0.510000X-0.510000X0.510000X-0.510000X-0.510000X0.510000X-0.510000X0*%
G04 #@! TD*
G04 #@! TA.AperFunction,ComponentPad*
%ADD16C,1.520000*%
G04 #@! TD*
G04 #@! TA.AperFunction,ComponentPad*
%ADD17R,1.700000X1.700000*%
G04 #@! TD*
G04 #@! TA.AperFunction,ComponentPad*
%ADD18O,1.700000X1.700000*%
G04 #@! TD*
G04 #@! TA.AperFunction,Conductor*
%ADD19C,0.762000*%
G04 #@! TD*
G04 APERTURE END LIST*
D10*
X147000000Y-105080000D03*
D11*
X147000000Y-94920000D03*
D10*
X159500000Y-104910000D03*
D11*
X159500000Y-94750000D03*
D12*
X146000000Y-74380000D03*
D11*
X143460000Y-74380000D03*
X140920000Y-74380000D03*
X138380000Y-74380000D03*
X138380000Y-82000000D03*
X140920000Y-82000000D03*
X143460000Y-82000000D03*
X146000000Y-82000000D03*
D10*
X155450000Y-104910000D03*
D11*
X155450000Y-94750000D03*
D13*
X139000000Y-110000000D03*
D14*
X139000000Y-107460000D03*
X139000000Y-104920000D03*
X139000000Y-102380000D03*
X139000000Y-99840000D03*
X139000000Y-97300000D03*
X139000000Y-94760000D03*
X139000000Y-92220000D03*
X116140000Y-92220000D03*
X116140000Y-94760000D03*
X116140000Y-97300000D03*
X116140000Y-99840000D03*
X116140000Y-102380000D03*
X116140000Y-104920000D03*
X116140000Y-107460000D03*
X116140000Y-110000000D03*
D12*
X130620000Y-74380000D03*
D11*
X128080000Y-74380000D03*
X125540000Y-74380000D03*
X123000000Y-74380000D03*
X123000000Y-82000000D03*
X125540000Y-82000000D03*
X128080000Y-82000000D03*
X130620000Y-82000000D03*
D15*
X160600000Y-89290000D03*
D16*
X159330000Y-86750000D03*
X158060000Y-89290000D03*
X156790000Y-86750000D03*
X155520000Y-89290000D03*
X154250000Y-86750000D03*
D17*
X147000000Y-117000000D03*
D18*
X144460000Y-117000000D03*
D19*
X141000000Y-77000000D02*
X140920000Y-76920000D01*
X116140000Y-94760000D02*
X118240000Y-94760000D01*
X156500000Y-92500000D02*
X160500000Y-92500000D01*
X140920000Y-76920000D02*
X140920000Y-74380000D01*
X118240000Y-94760000D02*
X119000000Y-94000000D01*
X123000000Y-82000000D02*
X123000000Y-78000000D01*
X119000000Y-90000000D02*
X121000000Y-88000000D01*
X135760000Y-77000000D02*
X124000000Y-77000000D01*
X138380000Y-82000000D02*
X138380000Y-79620000D01*
X123000000Y-78000000D02*
X124000000Y-77000000D01*
X163000000Y-95000000D02*
X163000000Y-114000000D01*
X121000000Y-88000000D02*
X121000000Y-80000000D01*
X152000000Y-90000000D02*
X152000000Y-91000000D01*
X138380000Y-85380000D02*
X142000000Y-89000000D01*
X154250000Y-86750000D02*
X152000000Y-89000000D01*
X124000000Y-77000000D02*
X125540000Y-75460000D01*
X153500000Y-92500000D02*
X156500000Y-92500000D01*
X138380000Y-79620000D02*
X135760000Y-77000000D01*
X152000000Y-117000000D02*
X154000000Y-117000000D01*
X156500000Y-92500000D02*
X158060000Y-90940000D01*
X158060000Y-90940000D02*
X158060000Y-89290000D01*
X121000000Y-80000000D02*
X123000000Y-78000000D01*
X154000000Y-117000000D02*
X147000000Y-117000000D01*
X142000000Y-89000000D02*
X142000000Y-107000000D01*
X163000000Y-114000000D02*
X160000000Y-117000000D01*
X138380000Y-79620000D02*
X141000000Y-77000000D01*
X153000000Y-92000000D02*
X153500000Y-92500000D01*
X152000000Y-89000000D02*
X152000000Y-90000000D01*
X142000000Y-107000000D02*
X152000000Y-117000000D01*
X160500000Y-92500000D02*
X163000000Y-95000000D01*
X125540000Y-75460000D02*
X125540000Y-74380000D01*
X119000000Y-94000000D02*
X119000000Y-90000000D01*
X138380000Y-82000000D02*
X138380000Y-85380000D01*
X152000000Y-91000000D02*
X153000000Y-92000000D01*
X160000000Y-117000000D02*
X154000000Y-117000000D01*
X144460000Y-112460000D02*
X142000000Y-110000000D01*
X144460000Y-117000000D02*
X144460000Y-112460000D01*
X142000000Y-110000000D02*
X139000000Y-110000000D01*
X143460000Y-74380000D02*
X143460000Y-76460000D01*
X148000000Y-79000000D02*
X149000000Y-80000000D01*
X143460000Y-76460000D02*
X146000000Y-79000000D01*
X149000000Y-80000000D02*
X149000000Y-92920000D01*
X149000000Y-92920000D02*
X147000000Y-94920000D01*
X146000000Y-79000000D02*
X148000000Y-79000000D01*
X140920000Y-84920000D02*
X140920000Y-82000000D01*
X144000000Y-88000000D02*
X140920000Y-84920000D01*
X151228630Y-108000000D02*
X146000000Y-108000000D01*
X155450000Y-104910000D02*
X154318630Y-104910000D01*
X154318630Y-104910000D02*
X151228630Y-108000000D01*
X144000000Y-106000000D02*
X144000000Y-88000000D01*
X146000000Y-108000000D02*
X144000000Y-106000000D01*
X125540000Y-82000000D02*
X125540000Y-94540000D01*
X125540000Y-94540000D02*
X133380000Y-102380000D01*
X133380000Y-102380000D02*
X139000000Y-102380000D01*
G04 #@! TA.AperFunction,Conductor*
G36*
X164442539Y-72520185D02*
G01*
X164488294Y-72572989D01*
X164499500Y-72624500D01*
X164499500Y-79702911D01*
X164479815Y-79769950D01*
X164427011Y-79815705D01*
X164357853Y-79825649D01*
X164294297Y-79796624D01*
X164260939Y-79750364D01*
X164185697Y-79568714D01*
X164185692Y-79568705D01*
X164062767Y-79355792D01*
X163913101Y-79160744D01*
X163913096Y-79160738D01*
X163739261Y-78986903D01*
X163739254Y-78986897D01*
X163544212Y-78837236D01*
X163544211Y-78837235D01*
X163544208Y-78837233D01*
X163331292Y-78714306D01*
X163331285Y-78714303D01*
X163104162Y-78620225D01*
X163104155Y-78620223D01*
X163104153Y-78620222D01*
X162866677Y-78556591D01*
X162825939Y-78551227D01*
X162622934Y-78524500D01*
X162622927Y-78524500D01*
X162377073Y-78524500D01*
X162377065Y-78524500D01*
X162145059Y-78555045D01*
X162133323Y-78556591D01*
X161895847Y-78620222D01*
X161895837Y-78620225D01*
X161668714Y-78714303D01*
X161668705Y-78714307D01*
X161455787Y-78837236D01*
X161260745Y-78986897D01*
X161260738Y-78986903D01*
X161086903Y-79160738D01*
X161086897Y-79160745D01*
X160937236Y-79355787D01*
X160814307Y-79568705D01*
X160814303Y-79568714D01*
X160720225Y-79795837D01*
X160720222Y-79795847D01*
X160656592Y-80033320D01*
X160656590Y-80033331D01*
X160624500Y-80277065D01*
X160624500Y-80522934D01*
X160647093Y-80694532D01*
X160656591Y-80766677D01*
X160717832Y-80995232D01*
X160720222Y-81004152D01*
X160720225Y-81004162D01*
X160785264Y-81161179D01*
X160814306Y-81231292D01*
X160937233Y-81444208D01*
X160937235Y-81444211D01*
X160937236Y-81444212D01*
X161086897Y-81639254D01*
X161086903Y-81639261D01*
X161260738Y-81813096D01*
X161260744Y-81813101D01*
X161455792Y-81962767D01*
X161668708Y-82085694D01*
X161895847Y-82179778D01*
X162133323Y-82243409D01*
X162377073Y-82275500D01*
X162377080Y-82275500D01*
X162622920Y-82275500D01*
X162622927Y-82275500D01*
X162866677Y-82243409D01*
X163104153Y-82179778D01*
X163331292Y-82085694D01*
X163544208Y-81962767D01*
X163739256Y-81813101D01*
X163913101Y-81639256D01*
X164062767Y-81444208D01*
X164185694Y-81231292D01*
X164260939Y-81049635D01*
X164304780Y-80995232D01*
X164371074Y-80973167D01*
X164438773Y-80990446D01*
X164486384Y-81041583D01*
X164499500Y-81097088D01*
X164499500Y-118375500D01*
X164479815Y-118442539D01*
X164427011Y-118488294D01*
X164375500Y-118499500D01*
X148189269Y-118499500D01*
X148122230Y-118479815D01*
X148076475Y-118427011D01*
X148066531Y-118357853D01*
X148095556Y-118294297D01*
X148114958Y-118276234D01*
X148207187Y-118207190D01*
X148207190Y-118207187D01*
X148293350Y-118092093D01*
X148293354Y-118092086D01*
X148343596Y-117957379D01*
X148343598Y-117957372D01*
X148349999Y-117897844D01*
X148350000Y-117897827D01*
X148350000Y-117250000D01*
X147433012Y-117250000D01*
X147465925Y-117192993D01*
X147500000Y-117065826D01*
X147500000Y-116934174D01*
X147465925Y-116807007D01*
X147433012Y-116750000D01*
X148350000Y-116750000D01*
X148350000Y-116102172D01*
X148349999Y-116102155D01*
X148343598Y-116042627D01*
X148343596Y-116042620D01*
X148293354Y-115907913D01*
X148293350Y-115907906D01*
X148207190Y-115792812D01*
X148207187Y-115792809D01*
X148092093Y-115706649D01*
X148092086Y-115706645D01*
X147957379Y-115656403D01*
X147957372Y-115656401D01*
X147897844Y-115650000D01*
X147250000Y-115650000D01*
X147250000Y-116566988D01*
X147192993Y-116534075D01*
X147065826Y-116500000D01*
X146934174Y-116500000D01*
X146807007Y-116534075D01*
X146750000Y-116566988D01*
X146750000Y-115650000D01*
X146102155Y-115650000D01*
X146042627Y-115656401D01*
X146042620Y-115656403D01*
X145907913Y-115706645D01*
X145907906Y-115706649D01*
X145792812Y-115792809D01*
X145792809Y-115792812D01*
X145706649Y-115907906D01*
X145706645Y-115907913D01*
X145657578Y-116039470D01*
X145615707Y-116095404D01*
X145550242Y-116119821D01*
X145481969Y-116104969D01*
X145453715Y-116083818D01*
X145377819Y-116007922D01*
X145344334Y-115946599D01*
X145341500Y-115920241D01*
X145341500Y-112373177D01*
X145307625Y-112202881D01*
X145307624Y-112202880D01*
X145307624Y-112202876D01*
X145307622Y-112202871D01*
X145241178Y-112042459D01*
X145241171Y-112042446D01*
X145144707Y-111898078D01*
X145144706Y-111898077D01*
X145021923Y-111775294D01*
X142561927Y-109315296D01*
X142561926Y-109315295D01*
X142417543Y-109218822D01*
X142257128Y-109152377D01*
X142257118Y-109152374D01*
X142086823Y-109118500D01*
X142086821Y-109118500D01*
X142086820Y-109118500D01*
X140624499Y-109118500D01*
X140557460Y-109098815D01*
X140511705Y-109046011D01*
X140500499Y-108994500D01*
X140500499Y-108952129D01*
X140500498Y-108952123D01*
X140500497Y-108952116D01*
X140494091Y-108892517D01*
X140492299Y-108887713D01*
X140443797Y-108757671D01*
X140443793Y-108757664D01*
X140357547Y-108642455D01*
X140357544Y-108642452D01*
X140242335Y-108556206D01*
X140242330Y-108556203D01*
X140205083Y-108542311D01*
X140149150Y-108500439D01*
X140124733Y-108434975D01*
X140139585Y-108366702D01*
X140160731Y-108338453D01*
X140191966Y-108307219D01*
X140312287Y-108141610D01*
X140405220Y-107959219D01*
X140468477Y-107764534D01*
X140500500Y-107562352D01*
X140500500Y-107357648D01*
X140468477Y-107155466D01*
X140405220Y-106960781D01*
X140405218Y-106960778D01*
X140405218Y-106960776D01*
X140371503Y-106894607D01*
X140312287Y-106778390D01*
X140304556Y-106767749D01*
X140191971Y-106612786D01*
X140047213Y-106468028D01*
X139881614Y-106347715D01*
X139875006Y-106344348D01*
X139788917Y-106300483D01*
X139738123Y-106252511D01*
X139721328Y-106184690D01*
X139743865Y-106118555D01*
X139788917Y-106079516D01*
X139881610Y-106032287D01*
X139902770Y-106016913D01*
X140047213Y-105911971D01*
X140047215Y-105911968D01*
X140047219Y-105911966D01*
X140191966Y-105767219D01*
X140191968Y-105767215D01*
X140191971Y-105767213D01*
X140288122Y-105634870D01*
X140312287Y-105601610D01*
X140405220Y-105419219D01*
X140468477Y-105224534D01*
X140500500Y-105022352D01*
X140500500Y-104817648D01*
X140468477Y-104615466D01*
X140405220Y-104420781D01*
X140405218Y-104420778D01*
X140405218Y-104420776D01*
X140321905Y-104257267D01*
X140312287Y-104238390D01*
X140302772Y-104225294D01*
X140191971Y-104072786D01*
X140047213Y-103928028D01*
X139881614Y-103807715D01*
X139826105Y-103779432D01*
X139788917Y-103760483D01*
X139738123Y-103712511D01*
X139721328Y-103644690D01*
X139743865Y-103578555D01*
X139788917Y-103539516D01*
X139881610Y-103492287D01*
X139902770Y-103476913D01*
X140047213Y-103371971D01*
X140047215Y-103371968D01*
X140047219Y-103371966D01*
X140191966Y-103227219D01*
X140191968Y-103227215D01*
X140191971Y-103227213D01*
X140310038Y-103064705D01*
X140312287Y-103061610D01*
X140405220Y-102879219D01*
X140468477Y-102684534D01*
X140500500Y-102482352D01*
X140500500Y-102277648D01*
X140468477Y-102075466D01*
X140405220Y-101880781D01*
X140405218Y-101880778D01*
X140405218Y-101880776D01*
X140371503Y-101814607D01*
X140312287Y-101698390D01*
X140304556Y-101687749D01*
X140191971Y-101532786D01*
X140047213Y-101388028D01*
X139881614Y-101267715D01*
X139875006Y-101264348D01*
X139788917Y-101220483D01*
X139738123Y-101172511D01*
X139721328Y-101104690D01*
X139743865Y-101038555D01*
X139788917Y-100999516D01*
X139881610Y-100952287D01*
X139902770Y-100936913D01*
X140047213Y-100831971D01*
X140047215Y-100831968D01*
X140047219Y-100831966D01*
X140191966Y-100687219D01*
X140191968Y-100687215D01*
X140191971Y-100687213D01*
X140244732Y-100614590D01*
X140312287Y-100521610D01*
X140405220Y-100339219D01*
X140468477Y-100144534D01*
X140500500Y-99942352D01*
X140500500Y-99737648D01*
X140468477Y-99535466D01*
X140405220Y-99340781D01*
X140405218Y-99340778D01*
X140405218Y-99340776D01*
X140371503Y-99274607D01*
X140312287Y-99158390D01*
X140304556Y-99147749D01*
X140191971Y-98992786D01*
X140047213Y-98848028D01*
X139881614Y-98727715D01*
X139875006Y-98724348D01*
X139788917Y-98680483D01*
X139738123Y-98632511D01*
X139721328Y-98564690D01*
X139743865Y-98498555D01*
X139788917Y-98459516D01*
X139881610Y-98412287D01*
X139902770Y-98396913D01*
X140047213Y-98291971D01*
X140047215Y-98291968D01*
X140047219Y-98291966D01*
X140191966Y-98147219D01*
X140191968Y-98147215D01*
X140191971Y-98147213D01*
X140244732Y-98074590D01*
X140312287Y-97981610D01*
X140405220Y-97799219D01*
X140468477Y-97604534D01*
X140500500Y-97402352D01*
X140500500Y-97197648D01*
X140468477Y-96995466D01*
X140405220Y-96800781D01*
X140405218Y-96800778D01*
X140405218Y-96800776D01*
X140371503Y-96734607D01*
X140312287Y-96618390D01*
X140304556Y-96607749D01*
X140191971Y-96452786D01*
X140047213Y-96308028D01*
X139881614Y-96187715D01*
X139875006Y-96184348D01*
X139788917Y-96140483D01*
X139738123Y-96092511D01*
X139721328Y-96024690D01*
X139743865Y-95958555D01*
X139788917Y-95919516D01*
X139881610Y-95872287D01*
X139902770Y-95856913D01*
X140047213Y-95751971D01*
X140047215Y-95751968D01*
X140047219Y-95751966D01*
X140191966Y-95607219D01*
X140191968Y-95607215D01*
X140191971Y-95607213D01*
X140244732Y-95534590D01*
X140312287Y-95441610D01*
X140405220Y-95259219D01*
X140468477Y-95064534D01*
X140500500Y-94862352D01*
X140500500Y-94657648D01*
X140478889Y-94521206D01*
X140468477Y-94455465D01*
X140419104Y-94303511D01*
X140405220Y-94260781D01*
X140405218Y-94260778D01*
X140405218Y-94260776D01*
X140348706Y-94149866D01*
X140312287Y-94078390D01*
X140304556Y-94067749D01*
X140191971Y-93912786D01*
X140047213Y-93768028D01*
X139881614Y-93647715D01*
X139826105Y-93619432D01*
X139788917Y-93600483D01*
X139738123Y-93552511D01*
X139721328Y-93484690D01*
X139743865Y-93418555D01*
X139788917Y-93379516D01*
X139881610Y-93332287D01*
X139902770Y-93316913D01*
X140047213Y-93211971D01*
X140047215Y-93211968D01*
X140047219Y-93211966D01*
X140191966Y-93067219D01*
X140191968Y-93067215D01*
X140191971Y-93067213D01*
X140244732Y-92994590D01*
X140312287Y-92901610D01*
X140405220Y-92719219D01*
X140468477Y-92524534D01*
X140500500Y-92322352D01*
X140500500Y-92117648D01*
X140468477Y-91915466D01*
X140405220Y-91720781D01*
X140405218Y-91720778D01*
X140405218Y-91720776D01*
X140371503Y-91654607D01*
X140312287Y-91538390D01*
X140304556Y-91527749D01*
X140191971Y-91372786D01*
X140047213Y-91228028D01*
X139881613Y-91107715D01*
X139881612Y-91107714D01*
X139881610Y-91107713D01*
X139824653Y-91078691D01*
X139699223Y-91014781D01*
X139504534Y-90951522D01*
X139329995Y-90923878D01*
X139302352Y-90919500D01*
X138697648Y-90919500D01*
X138673329Y-90923351D01*
X138495465Y-90951522D01*
X138300776Y-91014781D01*
X138118386Y-91107715D01*
X137952786Y-91228028D01*
X137808028Y-91372786D01*
X137687715Y-91538386D01*
X137594781Y-91720776D01*
X137531522Y-91915465D01*
X137499500Y-92117648D01*
X137499500Y-92322351D01*
X137531522Y-92524534D01*
X137594781Y-92719223D01*
X137687715Y-92901613D01*
X137808028Y-93067213D01*
X137952786Y-93211971D01*
X138107749Y-93324556D01*
X138118390Y-93332287D01*
X138209840Y-93378883D01*
X138211080Y-93379515D01*
X138261876Y-93427490D01*
X138278671Y-93495311D01*
X138256134Y-93561446D01*
X138211080Y-93600485D01*
X138118386Y-93647715D01*
X137952786Y-93768028D01*
X137808028Y-93912786D01*
X137687715Y-94078386D01*
X137594781Y-94260776D01*
X137531522Y-94455465D01*
X137499500Y-94657648D01*
X137499500Y-94862351D01*
X137531522Y-95064534D01*
X137594781Y-95259223D01*
X137687715Y-95441613D01*
X137808028Y-95607213D01*
X137952786Y-95751971D01*
X138107749Y-95864556D01*
X138118390Y-95872287D01*
X138209840Y-95918883D01*
X138211080Y-95919515D01*
X138261876Y-95967490D01*
X138278671Y-96035311D01*
X138256134Y-96101446D01*
X138211080Y-96140485D01*
X138118386Y-96187715D01*
X137952786Y-96308028D01*
X137808028Y-96452786D01*
X137687715Y-96618386D01*
X137594781Y-96800776D01*
X137531522Y-96995465D01*
X137499500Y-97197648D01*
X137499500Y-97402351D01*
X137531522Y-97604534D01*
X137594781Y-97799223D01*
X137687715Y-97981613D01*
X137808028Y-98147213D01*
X137952786Y-98291971D01*
X138107749Y-98404556D01*
X138118390Y-98412287D01*
X138209840Y-98458883D01*
X138211080Y-98459515D01*
X138261876Y-98507490D01*
X138278671Y-98575311D01*
X138256134Y-98641446D01*
X138211080Y-98680485D01*
X138118386Y-98727715D01*
X137952786Y-98848028D01*
X137808028Y-98992786D01*
X137687715Y-99158386D01*
X137594781Y-99340776D01*
X137531522Y-99535465D01*
X137499500Y-99737648D01*
X137499500Y-99942351D01*
X137531522Y-100144534D01*
X137594781Y-100339223D01*
X137687715Y-100521613D01*
X137808028Y-100687213D01*
X137952786Y-100831971D01*
X138107749Y-100944556D01*
X138118390Y-100952287D01*
X138209840Y-100998883D01*
X138211080Y-100999515D01*
X138261876Y-101047490D01*
X138278671Y-101115311D01*
X138256134Y-101181446D01*
X138211080Y-101220485D01*
X138118386Y-101267715D01*
X137952786Y-101388028D01*
X137952782Y-101388032D01*
X137878634Y-101462181D01*
X137817311Y-101495666D01*
X137790953Y-101498500D01*
X133796491Y-101498500D01*
X133729452Y-101478815D01*
X133708810Y-101462181D01*
X126457819Y-94211189D01*
X126424334Y-94149866D01*
X126421500Y-94123508D01*
X126421500Y-83009048D01*
X126441185Y-82942009D01*
X126457814Y-82921371D01*
X126540047Y-82839139D01*
X126670568Y-82652734D01*
X126697618Y-82594724D01*
X126743790Y-82542285D01*
X126810983Y-82523133D01*
X126877865Y-82543348D01*
X126922382Y-82594725D01*
X126949429Y-82652728D01*
X126949432Y-82652734D01*
X127079954Y-82839141D01*
X127240858Y-83000045D01*
X127240861Y-83000047D01*
X127427266Y-83130568D01*
X127633504Y-83226739D01*
X127853308Y-83285635D01*
X128015230Y-83299801D01*
X128079998Y-83305468D01*
X128080000Y-83305468D01*
X128080002Y-83305468D01*
X128136673Y-83300509D01*
X128306692Y-83285635D01*
X128526496Y-83226739D01*
X128732734Y-83130568D01*
X128919139Y-83000047D01*
X129080047Y-82839139D01*
X129210568Y-82652734D01*
X129237618Y-82594724D01*
X129283790Y-82542285D01*
X129350983Y-82523133D01*
X129417865Y-82543348D01*
X129462382Y-82594725D01*
X129489429Y-82652728D01*
X129489432Y-82652734D01*
X129619954Y-82839141D01*
X129780858Y-83000045D01*
X129780861Y-83000047D01*
X129967266Y-83130568D01*
X130173504Y-83226739D01*
X130393308Y-83285635D01*
X130555230Y-83299801D01*
X130619998Y-83305468D01*
X130620000Y-83305468D01*
X130620002Y-83305468D01*
X130676673Y-83300509D01*
X130846692Y-83285635D01*
X131066496Y-83226739D01*
X131272734Y-83130568D01*
X131459139Y-83000047D01*
X131620047Y-82839139D01*
X131750568Y-82652734D01*
X131846739Y-82446496D01*
X131905635Y-82226692D01*
X131925468Y-82000000D01*
X131905635Y-81773308D01*
X131899389Y-81749999D01*
X137101127Y-81749999D01*
X137101128Y-81750000D01*
X138064314Y-81750000D01*
X138059920Y-81754394D01*
X138007259Y-81845606D01*
X137980000Y-81947339D01*
X137980000Y-82052661D01*
X138007259Y-82154394D01*
X138059920Y-82245606D01*
X138064314Y-82250000D01*
X137101128Y-82250000D01*
X137153730Y-82446317D01*
X137153734Y-82446326D01*
X137249865Y-82652482D01*
X137380342Y-82838820D01*
X137541179Y-82999657D01*
X137727517Y-83130134D01*
X137933673Y-83226265D01*
X137933682Y-83226269D01*
X138129999Y-83278872D01*
X138130000Y-83278871D01*
X138130000Y-82315686D01*
X138134394Y-82320080D01*
X138225606Y-82372741D01*
X138327339Y-82400000D01*
X138432661Y-82400000D01*
X138534394Y-82372741D01*
X138625606Y-82320080D01*
X138630000Y-82315686D01*
X138630000Y-83278872D01*
X138826317Y-83226269D01*
X138826326Y-83226265D01*
X139032482Y-83130134D01*
X139218820Y-82999657D01*
X139379657Y-82838820D01*
X139510132Y-82652484D01*
X139537341Y-82594134D01*
X139583513Y-82541695D01*
X139650707Y-82522542D01*
X139717588Y-82542757D01*
X139762106Y-82594133D01*
X139789431Y-82652732D01*
X139789432Y-82652734D01*
X139919951Y-82839137D01*
X139919952Y-82839138D01*
X139919953Y-82839139D01*
X140002182Y-82921368D01*
X140035666Y-82982689D01*
X140038500Y-83009048D01*
X140038500Y-84833179D01*
X140038500Y-85006821D01*
X140038500Y-85006823D01*
X140038499Y-85006823D01*
X140072374Y-85177118D01*
X140072377Y-85177128D01*
X140138822Y-85337543D01*
X140235295Y-85481926D01*
X140235296Y-85481927D01*
X143082181Y-88328810D01*
X143115666Y-88390133D01*
X143118500Y-88416491D01*
X143118500Y-105913179D01*
X143118500Y-106086821D01*
X143118500Y-106086823D01*
X143118499Y-106086823D01*
X143152374Y-106257118D01*
X143152377Y-106257128D01*
X143218822Y-106417543D01*
X143315295Y-106561926D01*
X145438073Y-108684704D01*
X145582456Y-108781177D01*
X145742871Y-108847622D01*
X145742876Y-108847624D01*
X145742880Y-108847624D01*
X145742881Y-108847625D01*
X145913176Y-108881500D01*
X145913179Y-108881500D01*
X151315453Y-108881500D01*
X151430023Y-108858709D01*
X151485754Y-108847624D01*
X151565965Y-108814399D01*
X151646173Y-108781177D01*
X151646174Y-108781176D01*
X151646177Y-108781175D01*
X151790554Y-108684706D01*
X154510441Y-105964818D01*
X154571762Y-105931335D01*
X154641454Y-105936319D01*
X154669242Y-105950925D01*
X154797266Y-106040568D01*
X155003504Y-106136739D01*
X155223308Y-106195635D01*
X155385230Y-106209801D01*
X155449998Y-106215468D01*
X155450000Y-106215468D01*
X155450002Y-106215468D01*
X155506673Y-106210509D01*
X155676692Y-106195635D01*
X155896496Y-106136739D01*
X156102734Y-106040568D01*
X156289139Y-105910047D01*
X156450047Y-105749139D01*
X156580568Y-105562734D01*
X156676739Y-105356496D01*
X156735635Y-105136692D01*
X156755468Y-104910000D01*
X156755468Y-104909998D01*
X158194532Y-104909998D01*
X158194532Y-104910001D01*
X158214364Y-105136686D01*
X158214366Y-105136697D01*
X158273258Y-105356488D01*
X158273261Y-105356497D01*
X158369431Y-105562732D01*
X158369432Y-105562734D01*
X158499954Y-105749141D01*
X158660858Y-105910045D01*
X158660861Y-105910047D01*
X158847266Y-106040568D01*
X159053504Y-106136739D01*
X159273308Y-106195635D01*
X159435230Y-106209801D01*
X159499998Y-106215468D01*
X159500000Y-106215468D01*
X159500002Y-106215468D01*
X159556673Y-106210509D01*
X159726692Y-106195635D01*
X159946496Y-106136739D01*
X160152734Y-106040568D01*
X160339139Y-105910047D01*
X160500047Y-105749139D01*
X160630568Y-105562734D01*
X160726739Y-105356496D01*
X160785635Y-105136692D01*
X160805468Y-104910000D01*
X160785635Y-104683308D01*
X160726739Y-104463504D01*
X160630568Y-104257266D01*
X160500047Y-104070861D01*
X160500045Y-104070858D01*
X160339141Y-103909954D01*
X160152734Y-103779432D01*
X160152732Y-103779431D01*
X159946497Y-103683261D01*
X159946488Y-103683258D01*
X159726697Y-103624366D01*
X159726693Y-103624365D01*
X159726692Y-103624365D01*
X159726691Y-103624364D01*
X159726686Y-103624364D01*
X159500002Y-103604532D01*
X159499998Y-103604532D01*
X159273313Y-103624364D01*
X159273302Y-103624366D01*
X159053511Y-103683258D01*
X159053502Y-103683261D01*
X158847267Y-103779431D01*
X158847265Y-103779432D01*
X158660858Y-103909954D01*
X158499954Y-104070858D01*
X158369432Y-104257265D01*
X158369431Y-104257267D01*
X158273261Y-104463502D01*
X158273258Y-104463511D01*
X158214366Y-104683302D01*
X158214364Y-104683313D01*
X158194532Y-104909998D01*
X156755468Y-104909998D01*
X156735635Y-104683308D01*
X156676739Y-104463504D01*
X156580568Y-104257266D01*
X156450047Y-104070861D01*
X156450045Y-104070858D01*
X156289141Y-103909954D01*
X156102734Y-103779432D01*
X156102732Y-103779431D01*
X155896497Y-103683261D01*
X155896488Y-103683258D01*
X155676697Y-103624366D01*
X155676693Y-103624365D01*
X155676692Y-103624365D01*
X155676691Y-103624364D01*
X155676686Y-103624364D01*
X155450002Y-103604532D01*
X155449998Y-103604532D01*
X155223313Y-103624364D01*
X155223302Y-103624366D01*
X155003511Y-103683258D01*
X155003502Y-103683261D01*
X154797267Y-103779431D01*
X154797265Y-103779432D01*
X154610862Y-103909951D01*
X154571383Y-103949431D01*
X154528631Y-103992182D01*
X154467311Y-104025666D01*
X154440952Y-104028500D01*
X154231804Y-104028500D01*
X154061513Y-104062373D01*
X154061505Y-104062375D01*
X153948070Y-104109362D01*
X153948069Y-104109362D01*
X153901090Y-104128821D01*
X153901085Y-104128823D01*
X153901083Y-104128825D01*
X153880214Y-104142768D01*
X153880074Y-104142863D01*
X153880073Y-104142862D01*
X153756703Y-104225295D01*
X153756700Y-104225298D01*
X150899819Y-107082181D01*
X150838496Y-107115666D01*
X150812138Y-107118500D01*
X146416492Y-107118500D01*
X146349453Y-107098815D01*
X146328811Y-107082181D01*
X144917819Y-105671189D01*
X144884334Y-105609866D01*
X144881500Y-105583508D01*
X144881500Y-105079998D01*
X145694532Y-105079998D01*
X145694532Y-105080001D01*
X145714364Y-105306686D01*
X145714366Y-105306697D01*
X145773258Y-105526488D01*
X145773261Y-105526497D01*
X145869431Y-105732732D01*
X145869432Y-105732734D01*
X145999954Y-105919141D01*
X146160858Y-106080045D01*
X146160861Y-106080047D01*
X146347266Y-106210568D01*
X146553504Y-106306739D01*
X146773308Y-106365635D01*
X146935230Y-106379801D01*
X146999998Y-106385468D01*
X147000000Y-106385468D01*
X147000002Y-106385468D01*
X147056673Y-106380509D01*
X147226692Y-106365635D01*
X147446496Y-106306739D01*
X147652734Y-106210568D01*
X147839139Y-106080047D01*
X148000047Y-105919139D01*
X148130568Y-105732734D01*
X148226739Y-105526496D01*
X148285635Y-105306692D01*
X148305468Y-105080000D01*
X148285635Y-104853308D01*
X148226739Y-104633504D01*
X148130568Y-104427266D01*
X148000047Y-104240861D01*
X148000045Y-104240858D01*
X147839141Y-104079954D01*
X147652734Y-103949432D01*
X147652732Y-103949431D01*
X147446497Y-103853261D01*
X147446488Y-103853258D01*
X147226697Y-103794366D01*
X147226693Y-103794365D01*
X147226692Y-103794365D01*
X147226691Y-103794364D01*
X147226686Y-103794364D01*
X147000002Y-103774532D01*
X146999998Y-103774532D01*
X146773313Y-103794364D01*
X146773302Y-103794366D01*
X146553511Y-103853258D01*
X146553502Y-103853261D01*
X146347267Y-103949431D01*
X146347265Y-103949432D01*
X146160858Y-104079954D01*
X145999954Y-104240858D01*
X145869432Y-104427265D01*
X145869431Y-104427267D01*
X145773261Y-104633502D01*
X145773258Y-104633511D01*
X145714366Y-104853302D01*
X145714364Y-104853313D01*
X145694532Y-105079998D01*
X144881500Y-105079998D01*
X144881500Y-87913178D01*
X144881499Y-87913174D01*
X144868097Y-87845796D01*
X144847625Y-87742876D01*
X144783499Y-87588065D01*
X144781856Y-87583473D01*
X144781175Y-87582453D01*
X144684706Y-87438077D01*
X144561923Y-87315294D01*
X143299876Y-86053247D01*
X141837819Y-84591189D01*
X141804334Y-84529866D01*
X141801500Y-84503508D01*
X141801500Y-83009048D01*
X141821185Y-82942009D01*
X141837814Y-82921371D01*
X141920047Y-82839139D01*
X142050568Y-82652734D01*
X142077618Y-82594724D01*
X142123790Y-82542285D01*
X142190983Y-82523133D01*
X142257865Y-82543348D01*
X142302382Y-82594725D01*
X142329429Y-82652728D01*
X142329432Y-82652734D01*
X142459954Y-82839141D01*
X142620858Y-83000045D01*
X142620861Y-83000047D01*
X142807266Y-83130568D01*
X143013504Y-83226739D01*
X143233308Y-83285635D01*
X143395230Y-83299801D01*
X143459998Y-83305468D01*
X143460000Y-83305468D01*
X143460002Y-83305468D01*
X143516673Y-83300509D01*
X143686692Y-83285635D01*
X143906496Y-83226739D01*
X144112734Y-83130568D01*
X144299139Y-83000047D01*
X144460047Y-82839139D01*
X144590568Y-82652734D01*
X144617618Y-82594724D01*
X144663790Y-82542285D01*
X144730983Y-82523133D01*
X144797865Y-82543348D01*
X144842382Y-82594725D01*
X144869429Y-82652728D01*
X144869432Y-82652734D01*
X144999954Y-82839141D01*
X145160858Y-83000045D01*
X145160861Y-83000047D01*
X145347266Y-83130568D01*
X145553504Y-83226739D01*
X145773308Y-83285635D01*
X145935230Y-83299801D01*
X145999998Y-83305468D01*
X146000000Y-83305468D01*
X146000002Y-83305468D01*
X146056673Y-83300509D01*
X146226692Y-83285635D01*
X146446496Y-83226739D01*
X146652734Y-83130568D01*
X146839139Y-83000047D01*
X147000047Y-82839139D01*
X147130568Y-82652734D01*
X147226739Y-82446496D01*
X147285635Y-82226692D01*
X147305468Y-82000000D01*
X147285635Y-81773308D01*
X147226739Y-81553504D01*
X147130568Y-81347266D01*
X147000047Y-81160861D01*
X147000045Y-81160858D01*
X146839141Y-80999954D01*
X146652734Y-80869432D01*
X146652732Y-80869431D01*
X146446497Y-80773261D01*
X146446488Y-80773258D01*
X146226697Y-80714366D01*
X146226693Y-80714365D01*
X146226692Y-80714365D01*
X146226691Y-80714364D01*
X146226686Y-80714364D01*
X146000002Y-80694532D01*
X145999998Y-80694532D01*
X145773313Y-80714364D01*
X145773302Y-80714366D01*
X145553511Y-80773258D01*
X145553502Y-80773261D01*
X145347267Y-80869431D01*
X145347265Y-80869432D01*
X145160858Y-80999954D01*
X144999954Y-81160858D01*
X144869432Y-81347265D01*
X144869431Y-81347267D01*
X144842382Y-81405275D01*
X144796209Y-81457714D01*
X144729016Y-81476866D01*
X144662135Y-81456650D01*
X144617618Y-81405275D01*
X144590686Y-81347520D01*
X144590568Y-81347266D01*
X144460047Y-81160861D01*
X144460045Y-81160858D01*
X144299141Y-80999954D01*
X144112734Y-80869432D01*
X144112732Y-80869431D01*
X143906497Y-80773261D01*
X143906488Y-80773258D01*
X143686697Y-80714366D01*
X143686693Y-80714365D01*
X143686692Y-80714365D01*
X143686691Y-80714364D01*
X143686686Y-80714364D01*
X143460002Y-80694532D01*
X143459998Y-80694532D01*
X143233313Y-80714364D01*
X143233302Y-80714366D01*
X143013511Y-80773258D01*
X143013502Y-80773261D01*
X142807267Y-80869431D01*
X142807265Y-80869432D01*
X142620858Y-80999954D01*
X142459954Y-81160858D01*
X142329432Y-81347265D01*
X142329431Y-81347267D01*
X142302382Y-81405275D01*
X142256209Y-81457714D01*
X142189016Y-81476866D01*
X142122135Y-81456650D01*
X142077618Y-81405275D01*
X142050686Y-81347520D01*
X142050568Y-81347266D01*
X141920047Y-81160861D01*
X141920045Y-81160858D01*
X141759141Y-80999954D01*
X141572734Y-80869432D01*
X141572732Y-80869431D01*
X141366497Y-80773261D01*
X141366488Y-80773258D01*
X141146697Y-80714366D01*
X141146693Y-80714365D01*
X141146692Y-80714365D01*
X141146691Y-80714364D01*
X141146686Y-80714364D01*
X140920002Y-80694532D01*
X140919998Y-80694532D01*
X140693313Y-80714364D01*
X140693302Y-80714366D01*
X140473511Y-80773258D01*
X140473502Y-80773261D01*
X140267267Y-80869431D01*
X140267265Y-80869432D01*
X140080858Y-80999954D01*
X139919954Y-81160858D01*
X139789433Y-81347264D01*
X139789432Y-81347266D01*
X139789315Y-81347518D01*
X139762106Y-81405867D01*
X139715933Y-81458306D01*
X139648739Y-81477457D01*
X139581858Y-81457241D01*
X139537342Y-81405865D01*
X139510135Y-81347520D01*
X139510134Y-81347518D01*
X139379657Y-81161179D01*
X139218820Y-81000342D01*
X139032482Y-80869865D01*
X138826328Y-80773734D01*
X138630000Y-80721127D01*
X138630000Y-81684314D01*
X138625606Y-81679920D01*
X138534394Y-81627259D01*
X138432661Y-81600000D01*
X138327339Y-81600000D01*
X138225606Y-81627259D01*
X138134394Y-81679920D01*
X138130000Y-81684314D01*
X138130000Y-80721127D01*
X137933671Y-80773734D01*
X137727517Y-80869865D01*
X137541179Y-81000342D01*
X137380342Y-81161179D01*
X137249865Y-81347517D01*
X137153734Y-81553673D01*
X137153730Y-81553682D01*
X137101127Y-81749999D01*
X131899389Y-81749999D01*
X131846739Y-81553504D01*
X131750568Y-81347266D01*
X131620047Y-81160861D01*
X131620045Y-81160858D01*
X131459141Y-80999954D01*
X131272734Y-80869432D01*
X131272732Y-80869431D01*
X131066497Y-80773261D01*
X131066488Y-80773258D01*
X130846697Y-80714366D01*
X130846693Y-80714365D01*
X130846692Y-80714365D01*
X130846691Y-80714364D01*
X130846686Y-80714364D01*
X130620002Y-80694532D01*
X130619998Y-80694532D01*
X130393313Y-80714364D01*
X130393302Y-80714366D01*
X130173511Y-80773258D01*
X130173502Y-80773261D01*
X129967267Y-80869431D01*
X129967265Y-80869432D01*
X129780858Y-80999954D01*
X129619954Y-81160858D01*
X129489432Y-81347265D01*
X129489431Y-81347267D01*
X129462382Y-81405275D01*
X129416209Y-81457714D01*
X129349016Y-81476866D01*
X129282135Y-81456650D01*
X129237618Y-81405275D01*
X129210686Y-81347520D01*
X129210568Y-81347266D01*
X129080047Y-81160861D01*
X129080045Y-81160858D01*
X128919141Y-80999954D01*
X128732734Y-80869432D01*
X128732732Y-80869431D01*
X128526497Y-80773261D01*
X128526488Y-80773258D01*
X128306697Y-80714366D01*
X128306693Y-80714365D01*
X128306692Y-80714365D01*
X128306691Y-80714364D01*
X128306686Y-80714364D01*
X128080002Y-80694532D01*
X128079998Y-80694532D01*
X127853313Y-80714364D01*
X127853302Y-80714366D01*
X127633511Y-80773258D01*
X127633502Y-80773261D01*
X127427267Y-80869431D01*
X127427265Y-80869432D01*
X127240858Y-80999954D01*
X127079954Y-81160858D01*
X126949432Y-81347265D01*
X126949431Y-81347267D01*
X126922382Y-81405275D01*
X126876209Y-81457714D01*
X126809016Y-81476866D01*
X126742135Y-81456650D01*
X126697618Y-81405275D01*
X126670686Y-81347520D01*
X126670568Y-81347266D01*
X126540047Y-81160861D01*
X126540045Y-81160858D01*
X126379141Y-80999954D01*
X126192734Y-80869432D01*
X126192732Y-80869431D01*
X125986497Y-80773261D01*
X125986488Y-80773258D01*
X125766697Y-80714366D01*
X125766693Y-80714365D01*
X125766692Y-80714365D01*
X125766691Y-80714364D01*
X125766686Y-80714364D01*
X125540002Y-80694532D01*
X125539998Y-80694532D01*
X125313313Y-80714364D01*
X125313302Y-80714366D01*
X125093511Y-80773258D01*
X125093502Y-80773261D01*
X124887267Y-80869431D01*
X124887265Y-80869432D01*
X124700858Y-80999954D01*
X124539954Y-81160858D01*
X124409433Y-81347264D01*
X124409432Y-81347266D01*
X124409315Y-81347518D01*
X124382106Y-81405867D01*
X124335933Y-81458306D01*
X124268739Y-81477457D01*
X124201858Y-81457241D01*
X124157342Y-81405865D01*
X124130135Y-81347520D01*
X124130134Y-81347518D01*
X123999657Y-81161179D01*
X123838820Y-81000342D01*
X123652482Y-80869865D01*
X123446328Y-80773734D01*
X123250000Y-80721127D01*
X123250000Y-81684314D01*
X123245606Y-81679920D01*
X123154394Y-81627259D01*
X123052661Y-81600000D01*
X122947339Y-81600000D01*
X122845606Y-81627259D01*
X122754394Y-81679920D01*
X122750000Y-81684314D01*
X122750000Y-80721127D01*
X122553671Y-80773734D01*
X122347517Y-80869865D01*
X122161179Y-81000342D01*
X122000342Y-81161179D01*
X121869865Y-81347517D01*
X121773734Y-81553673D01*
X121773730Y-81553682D01*
X121721127Y-81749999D01*
X121721128Y-81750000D01*
X122684314Y-81750000D01*
X122679920Y-81754394D01*
X122627259Y-81845606D01*
X122600000Y-81947339D01*
X122600000Y-82052661D01*
X122627259Y-82154394D01*
X122679920Y-82245606D01*
X122684314Y-82250000D01*
X121721128Y-82250000D01*
X121773730Y-82446317D01*
X121773734Y-82446326D01*
X121869865Y-82652482D01*
X122000342Y-82838820D01*
X122161179Y-82999657D01*
X122347517Y-83130134D01*
X122553673Y-83226265D01*
X122553682Y-83226269D01*
X122749999Y-83278872D01*
X122750000Y-83278871D01*
X122750000Y-82315686D01*
X122754394Y-82320080D01*
X122845606Y-82372741D01*
X122947339Y-82400000D01*
X123052661Y-82400000D01*
X123154394Y-82372741D01*
X123245606Y-82320080D01*
X123250000Y-82315686D01*
X123250000Y-83278872D01*
X123446317Y-83226269D01*
X123446326Y-83226265D01*
X123652482Y-83130134D01*
X123838820Y-82999657D01*
X123999657Y-82838820D01*
X124130132Y-82652484D01*
X124157341Y-82594134D01*
X124203513Y-82541695D01*
X124270707Y-82522542D01*
X124337588Y-82542757D01*
X124382106Y-82594133D01*
X124409431Y-82652732D01*
X124409432Y-82652734D01*
X124539951Y-82839137D01*
X124539952Y-82839138D01*
X124539953Y-82839139D01*
X124622182Y-82921368D01*
X124655666Y-82982689D01*
X124658500Y-83009048D01*
X124658500Y-94453179D01*
X124658500Y-94626821D01*
X124658500Y-94626823D01*
X124658499Y-94626823D01*
X124692374Y-94797118D01*
X124692377Y-94797128D01*
X124758822Y-94957543D01*
X124855295Y-95101926D01*
X124855296Y-95101927D01*
X132818072Y-103064702D01*
X132818076Y-103064705D01*
X132962446Y-103161171D01*
X132962459Y-103161178D01*
X133121884Y-103227213D01*
X133122876Y-103227624D01*
X133122880Y-103227624D01*
X133122881Y-103227625D01*
X133293176Y-103261500D01*
X133293179Y-103261500D01*
X133293180Y-103261500D01*
X137790953Y-103261500D01*
X137857992Y-103281185D01*
X137878634Y-103297819D01*
X137952786Y-103371971D01*
X138107749Y-103484556D01*
X138118390Y-103492287D01*
X138209840Y-103538883D01*
X138211080Y-103539515D01*
X138261876Y-103587490D01*
X138278671Y-103655311D01*
X138256134Y-103721446D01*
X138211080Y-103760485D01*
X138118386Y-103807715D01*
X137952786Y-103928028D01*
X137808028Y-104072786D01*
X137687715Y-104238386D01*
X137594781Y-104420776D01*
X137531522Y-104615465D01*
X137499500Y-104817648D01*
X137499500Y-105022351D01*
X137531522Y-105224534D01*
X137594781Y-105419223D01*
X137687715Y-105601613D01*
X137808028Y-105767213D01*
X137952786Y-105911971D01*
X138107749Y-106024556D01*
X138118390Y-106032287D01*
X138209840Y-106078883D01*
X138211080Y-106079515D01*
X138261876Y-106127490D01*
X138278671Y-106195311D01*
X138256134Y-106261446D01*
X138211080Y-106300485D01*
X138118386Y-106347715D01*
X137952786Y-106468028D01*
X137808028Y-106612786D01*
X137687715Y-106778386D01*
X137594781Y-106960776D01*
X137531522Y-107155465D01*
X137499500Y-107357648D01*
X137499500Y-107562351D01*
X137531522Y-107764534D01*
X137594781Y-107959223D01*
X137687715Y-108141613D01*
X137808028Y-108307213D01*
X137839263Y-108338448D01*
X137872748Y-108399771D01*
X137867764Y-108469463D01*
X137825892Y-108525396D01*
X137794917Y-108542310D01*
X137757673Y-108556201D01*
X137757664Y-108556206D01*
X137642455Y-108642452D01*
X137642452Y-108642455D01*
X137556206Y-108757664D01*
X137556202Y-108757671D01*
X137505908Y-108892517D01*
X137499501Y-108952116D01*
X137499501Y-108952123D01*
X137499500Y-108952135D01*
X137499501Y-110876000D01*
X137479816Y-110943039D01*
X137427013Y-110988794D01*
X137375501Y-111000000D01*
X117464328Y-111000000D01*
X117397289Y-110980315D01*
X117351534Y-110927511D01*
X117341590Y-110858353D01*
X117364010Y-110803115D01*
X117408397Y-110742019D01*
X117452287Y-110681610D01*
X117545220Y-110499219D01*
X117608477Y-110304534D01*
X117640500Y-110102352D01*
X117640500Y-109897648D01*
X117608477Y-109695466D01*
X117545220Y-109500781D01*
X117545218Y-109500778D01*
X117545218Y-109500776D01*
X117511503Y-109434607D01*
X117452287Y-109318390D01*
X117444556Y-109307749D01*
X117331971Y-109152786D01*
X117187213Y-109008028D01*
X117021614Y-108887715D01*
X117009416Y-108881500D01*
X116928917Y-108840483D01*
X116878123Y-108792511D01*
X116861328Y-108724690D01*
X116883865Y-108658555D01*
X116928917Y-108619516D01*
X117021610Y-108572287D01*
X117062870Y-108542310D01*
X117187213Y-108451971D01*
X117187215Y-108451968D01*
X117187219Y-108451966D01*
X117331966Y-108307219D01*
X117331968Y-108307215D01*
X117331971Y-108307213D01*
X117384732Y-108234590D01*
X117452287Y-108141610D01*
X117545220Y-107959219D01*
X117608477Y-107764534D01*
X117640500Y-107562352D01*
X117640500Y-107357648D01*
X117608477Y-107155466D01*
X117545220Y-106960781D01*
X117545218Y-106960778D01*
X117545218Y-106960776D01*
X117511503Y-106894607D01*
X117452287Y-106778390D01*
X117444556Y-106767749D01*
X117331971Y-106612786D01*
X117187213Y-106468028D01*
X117021614Y-106347715D01*
X117015006Y-106344348D01*
X116928917Y-106300483D01*
X116878123Y-106252511D01*
X116861328Y-106184690D01*
X116883865Y-106118555D01*
X116928917Y-106079516D01*
X117021610Y-106032287D01*
X117042770Y-106016913D01*
X117187213Y-105911971D01*
X117187215Y-105911968D01*
X117187219Y-105911966D01*
X117331966Y-105767219D01*
X117331968Y-105767215D01*
X117331971Y-105767213D01*
X117428122Y-105634870D01*
X117452287Y-105601610D01*
X117545220Y-105419219D01*
X117608477Y-105224534D01*
X117640500Y-105022352D01*
X117640500Y-104817648D01*
X117608477Y-104615466D01*
X117545220Y-104420781D01*
X117545218Y-104420778D01*
X117545218Y-104420776D01*
X117461905Y-104257267D01*
X117452287Y-104238390D01*
X117442772Y-104225294D01*
X117331971Y-104072786D01*
X117187213Y-103928028D01*
X117021614Y-103807715D01*
X116966105Y-103779432D01*
X116928917Y-103760483D01*
X116878123Y-103712511D01*
X116861328Y-103644690D01*
X116883865Y-103578555D01*
X116928917Y-103539516D01*
X117021610Y-103492287D01*
X117042770Y-103476913D01*
X117187213Y-103371971D01*
X117187215Y-103371968D01*
X117187219Y-103371966D01*
X117331966Y-103227219D01*
X117331968Y-103227215D01*
X117331971Y-103227213D01*
X117450038Y-103064705D01*
X117452287Y-103061610D01*
X117545220Y-102879219D01*
X117608477Y-102684534D01*
X117640500Y-102482352D01*
X117640500Y-102277648D01*
X117608477Y-102075466D01*
X117545220Y-101880781D01*
X117545218Y-101880778D01*
X117545218Y-101880776D01*
X117511503Y-101814607D01*
X117452287Y-101698390D01*
X117444556Y-101687749D01*
X117331971Y-101532786D01*
X117187213Y-101388028D01*
X117021614Y-101267715D01*
X117015006Y-101264348D01*
X116928917Y-101220483D01*
X116878123Y-101172511D01*
X116861328Y-101104690D01*
X116883865Y-101038555D01*
X116928917Y-100999516D01*
X117021610Y-100952287D01*
X117042770Y-100936913D01*
X117187213Y-100831971D01*
X117187215Y-100831968D01*
X117187219Y-100831966D01*
X117331966Y-100687219D01*
X117331968Y-100687215D01*
X117331971Y-100687213D01*
X117384732Y-100614590D01*
X117452287Y-100521610D01*
X117545220Y-100339219D01*
X117608477Y-100144534D01*
X117640500Y-99942352D01*
X117640500Y-99737648D01*
X117608477Y-99535466D01*
X117545220Y-99340781D01*
X117545218Y-99340778D01*
X117545218Y-99340776D01*
X117511503Y-99274607D01*
X117452287Y-99158390D01*
X117444556Y-99147749D01*
X117331971Y-98992786D01*
X117187213Y-98848028D01*
X117021614Y-98727715D01*
X117015006Y-98724348D01*
X116928917Y-98680483D01*
X116878123Y-98632511D01*
X116861328Y-98564690D01*
X116883865Y-98498555D01*
X116928917Y-98459516D01*
X117021610Y-98412287D01*
X117042770Y-98396913D01*
X117187213Y-98291971D01*
X117187215Y-98291968D01*
X117187219Y-98291966D01*
X117331966Y-98147219D01*
X117331968Y-98147215D01*
X117331971Y-98147213D01*
X117384732Y-98074590D01*
X117452287Y-97981610D01*
X117545220Y-97799219D01*
X117608477Y-97604534D01*
X117640500Y-97402352D01*
X117640500Y-97197648D01*
X117608477Y-96995466D01*
X117545220Y-96800781D01*
X117545218Y-96800778D01*
X117545218Y-96800776D01*
X117511503Y-96734607D01*
X117452287Y-96618390D01*
X117444556Y-96607749D01*
X117331971Y-96452786D01*
X117187213Y-96308028D01*
X117021611Y-96187713D01*
X116928369Y-96140203D01*
X116877574Y-96092229D01*
X116860779Y-96024407D01*
X116883317Y-95958273D01*
X116928371Y-95919234D01*
X117021347Y-95871861D01*
X117186894Y-95751582D01*
X117186895Y-95751582D01*
X117331582Y-95606895D01*
X117331582Y-95606894D01*
X117451859Y-95441349D01*
X117544755Y-95259029D01*
X117607990Y-95064413D01*
X117616609Y-95010000D01*
X116573012Y-95010000D01*
X116605925Y-94952993D01*
X116640000Y-94825826D01*
X116640000Y-94694174D01*
X116605925Y-94567007D01*
X116573012Y-94510000D01*
X117616609Y-94510000D01*
X117607990Y-94455586D01*
X117544755Y-94260970D01*
X117451859Y-94078650D01*
X117331582Y-93913105D01*
X117331582Y-93913104D01*
X117186895Y-93768417D01*
X117021349Y-93648140D01*
X116928370Y-93600765D01*
X116877574Y-93552790D01*
X116860779Y-93484969D01*
X116883316Y-93418835D01*
X116928370Y-93379795D01*
X116928920Y-93379515D01*
X117021610Y-93332287D01*
X117042770Y-93316913D01*
X117187213Y-93211971D01*
X117187215Y-93211968D01*
X117187219Y-93211966D01*
X117331966Y-93067219D01*
X117331968Y-93067215D01*
X117331971Y-93067213D01*
X117384732Y-92994590D01*
X117452287Y-92901610D01*
X117545220Y-92719219D01*
X117608477Y-92524534D01*
X117640500Y-92322352D01*
X117640500Y-92117648D01*
X117608477Y-91915466D01*
X117545220Y-91720781D01*
X117545218Y-91720778D01*
X117545218Y-91720776D01*
X117511503Y-91654607D01*
X117452287Y-91538390D01*
X117444556Y-91527749D01*
X117331971Y-91372786D01*
X117187213Y-91228028D01*
X117021613Y-91107715D01*
X117021612Y-91107714D01*
X117021610Y-91107713D01*
X116964653Y-91078691D01*
X116839223Y-91014781D01*
X116644534Y-90951522D01*
X116469995Y-90923878D01*
X116442352Y-90919500D01*
X115837648Y-90919500D01*
X115813329Y-90923351D01*
X115635465Y-90951522D01*
X115440776Y-91014781D01*
X115258386Y-91107715D01*
X115092786Y-91228028D01*
X114948028Y-91372786D01*
X114827715Y-91538386D01*
X114734985Y-91720378D01*
X114687010Y-91771174D01*
X114619189Y-91787969D01*
X114553054Y-91765431D01*
X114509603Y-91710716D01*
X114500500Y-91664083D01*
X114500500Y-74379998D01*
X121694532Y-74379998D01*
X121694532Y-74380001D01*
X121714364Y-74606686D01*
X121714366Y-74606697D01*
X121773258Y-74826488D01*
X121773261Y-74826497D01*
X121869431Y-75032732D01*
X121869432Y-75032734D01*
X121999954Y-75219141D01*
X122160858Y-75380045D01*
X122160861Y-75380047D01*
X122347266Y-75510568D01*
X122553504Y-75606739D01*
X122773308Y-75665635D01*
X122935230Y-75679801D01*
X122999998Y-75685468D01*
X123000000Y-75685468D01*
X123000002Y-75685468D01*
X123056807Y-75680498D01*
X123226692Y-75665635D01*
X123446496Y-75606739D01*
X123652734Y-75510568D01*
X123839139Y-75380047D01*
X124000047Y-75219139D01*
X124130568Y-75032734D01*
X124157895Y-74974129D01*
X124204064Y-74921695D01*
X124271257Y-74902542D01*
X124338139Y-74922757D01*
X124382657Y-74974133D01*
X124409865Y-75032482D01*
X124540342Y-75218820D01*
X124701179Y-75379657D01*
X124887517Y-75510134D01*
X125093673Y-75606265D01*
X125093682Y-75606269D01*
X125289999Y-75658872D01*
X125290000Y-75658871D01*
X125290000Y-74695686D01*
X125294394Y-74700080D01*
X125385606Y-74752741D01*
X125487339Y-74780000D01*
X125592661Y-74780000D01*
X125694394Y-74752741D01*
X125785606Y-74700080D01*
X125790000Y-74695686D01*
X125790000Y-75658872D01*
X125986317Y-75606269D01*
X125986326Y-75606265D01*
X126192482Y-75510134D01*
X126378820Y-75379657D01*
X126539657Y-75218820D01*
X126670132Y-75032484D01*
X126697341Y-74974134D01*
X126743513Y-74921695D01*
X126810707Y-74902542D01*
X126877588Y-74922757D01*
X126922106Y-74974133D01*
X126949431Y-75032732D01*
X126949432Y-75032734D01*
X127079954Y-75219141D01*
X127240858Y-75380045D01*
X127240861Y-75380047D01*
X127427266Y-75510568D01*
X127633504Y-75606739D01*
X127853308Y-75665635D01*
X128015230Y-75679801D01*
X128079998Y-75685468D01*
X128080000Y-75685468D01*
X128080002Y-75685468D01*
X128136807Y-75680498D01*
X128306692Y-75665635D01*
X128526496Y-75606739D01*
X128732734Y-75510568D01*
X128919139Y-75380047D01*
X129080047Y-75219139D01*
X129097272Y-75194539D01*
X129151848Y-75150913D01*
X129221346Y-75143718D01*
X129283701Y-75175239D01*
X129319116Y-75235468D01*
X129322138Y-75252406D01*
X129325908Y-75287483D01*
X129376202Y-75422328D01*
X129376206Y-75422335D01*
X129462452Y-75537544D01*
X129462455Y-75537547D01*
X129577664Y-75623793D01*
X129577671Y-75623797D01*
X129712517Y-75674091D01*
X129712516Y-75674091D01*
X129719444Y-75674835D01*
X129772127Y-75680500D01*
X131467872Y-75680499D01*
X131527483Y-75674091D01*
X131662331Y-75623796D01*
X131777546Y-75537546D01*
X131863796Y-75422331D01*
X131914091Y-75287483D01*
X131920500Y-75227873D01*
X131920499Y-74379998D01*
X137074532Y-74379998D01*
X137074532Y-74380001D01*
X137094364Y-74606686D01*
X137094366Y-74606697D01*
X137153258Y-74826488D01*
X137153261Y-74826497D01*
X137249431Y-75032732D01*
X137249432Y-75032734D01*
X137379954Y-75219141D01*
X137540858Y-75380045D01*
X137540861Y-75380047D01*
X137727266Y-75510568D01*
X137933504Y-75606739D01*
X138153308Y-75665635D01*
X138315230Y-75679801D01*
X138379998Y-75685468D01*
X138380000Y-75685468D01*
X138380002Y-75685468D01*
X138436807Y-75680498D01*
X138606692Y-75665635D01*
X138826496Y-75606739D01*
X139032734Y-75510568D01*
X139219139Y-75380047D01*
X139380047Y-75219139D01*
X139510568Y-75032734D01*
X139537895Y-74974129D01*
X139584064Y-74921695D01*
X139651257Y-74902542D01*
X139718139Y-74922757D01*
X139762657Y-74974133D01*
X139789865Y-75032482D01*
X139920342Y-75218820D01*
X140081179Y-75379657D01*
X140267517Y-75510134D01*
X140473673Y-75606265D01*
X140473682Y-75606269D01*
X140669999Y-75658872D01*
X140670000Y-75658871D01*
X140670000Y-74695686D01*
X140674394Y-74700080D01*
X140765606Y-74752741D01*
X140867339Y-74780000D01*
X140972661Y-74780000D01*
X141074394Y-74752741D01*
X141165606Y-74700080D01*
X141170000Y-74695686D01*
X141170000Y-75658872D01*
X141366317Y-75606269D01*
X141366326Y-75606265D01*
X141572482Y-75510134D01*
X141758820Y-75379657D01*
X141919657Y-75218820D01*
X142050132Y-75032484D01*
X142077341Y-74974134D01*
X142123513Y-74921695D01*
X142190707Y-74902542D01*
X142257588Y-74922757D01*
X142302106Y-74974133D01*
X142329431Y-75032732D01*
X142329432Y-75032734D01*
X142459951Y-75219137D01*
X142459952Y-75219138D01*
X142459953Y-75219139D01*
X142542182Y-75301368D01*
X142575666Y-75362689D01*
X142578500Y-75389048D01*
X142578500Y-76373179D01*
X142578500Y-76546821D01*
X142578500Y-76546823D01*
X142578499Y-76546823D01*
X142612374Y-76717118D01*
X142612377Y-76717128D01*
X142678822Y-76877543D01*
X142775295Y-77021926D01*
X142775296Y-77021927D01*
X145315294Y-79561923D01*
X145438077Y-79684706D01*
X145438078Y-79684707D01*
X145582446Y-79781171D01*
X145582459Y-79781178D01*
X145665816Y-79815705D01*
X145742876Y-79847624D01*
X145742880Y-79847624D01*
X145742881Y-79847625D01*
X145913176Y-79881500D01*
X145913179Y-79881500D01*
X145913180Y-79881500D01*
X147583508Y-79881500D01*
X147650547Y-79901185D01*
X147671189Y-79917819D01*
X148082181Y-80328810D01*
X148115666Y-80390133D01*
X148118500Y-80416491D01*
X148118500Y-92503507D01*
X148098815Y-92570546D01*
X148082181Y-92591188D01*
X147094990Y-93578378D01*
X147033667Y-93611863D01*
X147005413Y-93613665D01*
X147005413Y-93614532D01*
X146999998Y-93614532D01*
X146773313Y-93634364D01*
X146773302Y-93634366D01*
X146553511Y-93693258D01*
X146553502Y-93693261D01*
X146347267Y-93789431D01*
X146347265Y-93789432D01*
X146160858Y-93919954D01*
X145999954Y-94080858D01*
X145869432Y-94267265D01*
X145869431Y-94267267D01*
X145773261Y-94473502D01*
X145773258Y-94473511D01*
X145714366Y-94693302D01*
X145714364Y-94693313D01*
X145694532Y-94919998D01*
X145694532Y-94920001D01*
X145714364Y-95146686D01*
X145714366Y-95146697D01*
X145773258Y-95366488D01*
X145773261Y-95366497D01*
X145869431Y-95572732D01*
X145869432Y-95572734D01*
X145999954Y-95759141D01*
X146160858Y-95920045D01*
X146160861Y-95920047D01*
X146347266Y-96050568D01*
X146553504Y-96146739D01*
X146773308Y-96205635D01*
X146935230Y-96219801D01*
X146999998Y-96225468D01*
X147000000Y-96225468D01*
X147000002Y-96225468D01*
X147056673Y-96220509D01*
X147226692Y-96205635D01*
X147446496Y-96146739D01*
X147652734Y-96050568D01*
X147839139Y-95920047D01*
X148000047Y-95759139D01*
X148130568Y-95572734D01*
X148226739Y-95366496D01*
X148285635Y-95146692D01*
X148305468Y-94920000D01*
X148305468Y-94919998D01*
X148305468Y-94914585D01*
X148307565Y-94914585D01*
X148319540Y-94854997D01*
X148341618Y-94825010D01*
X148416630Y-94749998D01*
X154144532Y-94749998D01*
X154144532Y-94750001D01*
X154164364Y-94976686D01*
X154164366Y-94976697D01*
X154223258Y-95196488D01*
X154223261Y-95196497D01*
X154319431Y-95402732D01*
X154319432Y-95402734D01*
X154449954Y-95589141D01*
X154610858Y-95750045D01*
X154610861Y-95750047D01*
X154797266Y-95880568D01*
X155003504Y-95976739D01*
X155223308Y-96035635D01*
X155385230Y-96049801D01*
X155449998Y-96055468D01*
X155450000Y-96055468D01*
X155450002Y-96055468D01*
X155506673Y-96050509D01*
X155676692Y-96035635D01*
X155896496Y-95976739D01*
X156102734Y-95880568D01*
X156289139Y-95750047D01*
X156450047Y-95589139D01*
X156580568Y-95402734D01*
X156676739Y-95196496D01*
X156735635Y-94976692D01*
X156755468Y-94750000D01*
X156755468Y-94749998D01*
X158194532Y-94749998D01*
X158194532Y-94750001D01*
X158214364Y-94976686D01*
X158214366Y-94976697D01*
X158273258Y-95196488D01*
X158273261Y-95196497D01*
X158369431Y-95402732D01*
X158369432Y-95402734D01*
X158499954Y-95589141D01*
X158660858Y-95750045D01*
X158660861Y-95750047D01*
X158847266Y-95880568D01*
X159053504Y-95976739D01*
X159273308Y-96035635D01*
X159435230Y-96049801D01*
X159499998Y-96055468D01*
X159500000Y-96055468D01*
X159500002Y-96055468D01*
X159556673Y-96050509D01*
X159726692Y-96035635D01*
X159946496Y-95976739D01*
X160152734Y-95880568D01*
X160339139Y-95750047D01*
X160500047Y-95589139D01*
X160630568Y-95402734D01*
X160726739Y-95196496D01*
X160785635Y-94976692D01*
X160805468Y-94750000D01*
X160785635Y-94523308D01*
X160726739Y-94303504D01*
X160630568Y-94097266D01*
X160500047Y-93910861D01*
X160500045Y-93910858D01*
X160339141Y-93749954D01*
X160152734Y-93619432D01*
X160152732Y-93619431D01*
X159946497Y-93523261D01*
X159946488Y-93523258D01*
X159726697Y-93464366D01*
X159726693Y-93464365D01*
X159726692Y-93464365D01*
X159726691Y-93464364D01*
X159726686Y-93464364D01*
X159500002Y-93444532D01*
X159499998Y-93444532D01*
X159273313Y-93464364D01*
X159273302Y-93464366D01*
X159053511Y-93523258D01*
X159053502Y-93523261D01*
X158847267Y-93619431D01*
X158847265Y-93619432D01*
X158660858Y-93749954D01*
X158499954Y-93910858D01*
X158369432Y-94097265D01*
X158369431Y-94097267D01*
X158273261Y-94303502D01*
X158273258Y-94303511D01*
X158214366Y-94523302D01*
X158214364Y-94523313D01*
X158194532Y-94749998D01*
X156755468Y-94749998D01*
X156735635Y-94523308D01*
X156676739Y-94303504D01*
X156580568Y-94097266D01*
X156450047Y-93910861D01*
X156450045Y-93910858D01*
X156289141Y-93749954D01*
X156102734Y-93619432D01*
X156102732Y-93619431D01*
X155896497Y-93523261D01*
X155896488Y-93523258D01*
X155676697Y-93464366D01*
X155676693Y-93464365D01*
X155676692Y-93464365D01*
X155676691Y-93464364D01*
X155676686Y-93464364D01*
X155450002Y-93444532D01*
X155449998Y-93444532D01*
X155223313Y-93464364D01*
X155223302Y-93464366D01*
X155003511Y-93523258D01*
X155003502Y-93523261D01*
X154797267Y-93619431D01*
X154797265Y-93619432D01*
X154610858Y-93749954D01*
X154449954Y-93910858D01*
X154319432Y-94097265D01*
X154319431Y-94097267D01*
X154223261Y-94303502D01*
X154223258Y-94303511D01*
X154164366Y-94523302D01*
X154164364Y-94523313D01*
X154144532Y-94749998D01*
X148416630Y-94749998D01*
X149684706Y-93481924D01*
X149781175Y-93337547D01*
X149847624Y-93177124D01*
X149881500Y-93006821D01*
X149881500Y-92833179D01*
X149881500Y-86749998D01*
X152985187Y-86749998D01*
X152985187Y-86750001D01*
X153004401Y-86969626D01*
X153004402Y-86969634D01*
X153061463Y-87182587D01*
X153061466Y-87182593D01*
X153154638Y-87382402D01*
X153199694Y-87446750D01*
X153870000Y-86776445D01*
X153870000Y-86800028D01*
X153895896Y-86896675D01*
X153945924Y-86983325D01*
X154016675Y-87054076D01*
X154103325Y-87104104D01*
X154199972Y-87130000D01*
X154223553Y-87130000D01*
X153553247Y-87800304D01*
X153617593Y-87845359D01*
X153817406Y-87938533D01*
X153817412Y-87938536D01*
X154030365Y-87995597D01*
X154030373Y-87995598D01*
X154249998Y-88014813D01*
X154250002Y-88014813D01*
X154469626Y-87995598D01*
X154469634Y-87995597D01*
X154682587Y-87938536D01*
X154682598Y-87938532D01*
X154882402Y-87845362D01*
X154882410Y-87845358D01*
X154946751Y-87800305D01*
X154946751Y-87800304D01*
X154276448Y-87130000D01*
X154300028Y-87130000D01*
X154396675Y-87104104D01*
X154483325Y-87054076D01*
X154554076Y-86983325D01*
X154604104Y-86896675D01*
X154630000Y-86800028D01*
X154630000Y-86776447D01*
X155300304Y-87446751D01*
X155300305Y-87446751D01*
X155345358Y-87382410D01*
X155345362Y-87382402D01*
X155407342Y-87249486D01*
X155453514Y-87197046D01*
X155520707Y-87177894D01*
X155587588Y-87198109D01*
X155632106Y-87249486D01*
X155694203Y-87382654D01*
X155694207Y-87382662D01*
X155820712Y-87563330D01*
X155976669Y-87719287D01*
X156157337Y-87845792D01*
X156157339Y-87845793D01*
X156157342Y-87845795D01*
X156247536Y-87887853D01*
X156357230Y-87939004D01*
X156357232Y-87939004D01*
X156357237Y-87939007D01*
X156570280Y-87996092D01*
X156727135Y-88009815D01*
X156789998Y-88015315D01*
X156790000Y-88015315D01*
X156790002Y-88015315D01*
X156852865Y-88009815D01*
X157009720Y-87996092D01*
X157222763Y-87939007D01*
X157422658Y-87845795D01*
X157603329Y-87719288D01*
X157759288Y-87563329D01*
X157885795Y-87382658D01*
X157947618Y-87250076D01*
X157993790Y-87197637D01*
X158060983Y-87178485D01*
X158127864Y-87198700D01*
X158172382Y-87250077D01*
X158234203Y-87382654D01*
X158234207Y-87382662D01*
X158360712Y-87563330D01*
X158516669Y-87719287D01*
X158697337Y-87845792D01*
X158697339Y-87845793D01*
X158697342Y-87845795D01*
X158787536Y-87887853D01*
X158897230Y-87939004D01*
X158897232Y-87939004D01*
X158897237Y-87939007D01*
X159110280Y-87996092D01*
X159267135Y-88009815D01*
X159329998Y-88015315D01*
X159330000Y-88015315D01*
X159330001Y-88015315D01*
X159352997Y-88013302D01*
X159498348Y-88000586D01*
X159566847Y-88014352D01*
X159617030Y-88062967D01*
X159632964Y-88130996D01*
X159609589Y-88196840D01*
X159596837Y-88211795D01*
X159497287Y-88311345D01*
X159405187Y-88460663D01*
X159405186Y-88460666D01*
X159358304Y-88602145D01*
X159318531Y-88659589D01*
X159254015Y-88686412D01*
X159185239Y-88674097D01*
X159139022Y-88634262D01*
X159110304Y-88593247D01*
X158440000Y-89263551D01*
X158440000Y-89239972D01*
X158414104Y-89143325D01*
X158364076Y-89056675D01*
X158293325Y-88985924D01*
X158206675Y-88935896D01*
X158110028Y-88910000D01*
X158086447Y-88910000D01*
X158756751Y-88239694D01*
X158692402Y-88194638D01*
X158492593Y-88101466D01*
X158492587Y-88101463D01*
X158279634Y-88044402D01*
X158279626Y-88044401D01*
X158060002Y-88025187D01*
X158059998Y-88025187D01*
X157840373Y-88044401D01*
X157840366Y-88044402D01*
X157627404Y-88101466D01*
X157427594Y-88194640D01*
X157363248Y-88239694D01*
X158033554Y-88910000D01*
X158009972Y-88910000D01*
X157913325Y-88935896D01*
X157826675Y-88985924D01*
X157755924Y-89056675D01*
X157705896Y-89143325D01*
X157680000Y-89239972D01*
X157680000Y-89263554D01*
X157009694Y-88593248D01*
X156964640Y-88657594D01*
X156902657Y-88790515D01*
X156856484Y-88842954D01*
X156789290Y-88862106D01*
X156722409Y-88841890D01*
X156677894Y-88790515D01*
X156615795Y-88657343D01*
X156489288Y-88476671D01*
X156489286Y-88476668D01*
X156333330Y-88320712D01*
X156152662Y-88194207D01*
X156152654Y-88194203D01*
X155952769Y-88100995D01*
X155952755Y-88100990D01*
X155739724Y-88043909D01*
X155739722Y-88043908D01*
X155739720Y-88043908D01*
X155739718Y-88043907D01*
X155739714Y-88043907D01*
X155520002Y-88024685D01*
X155519998Y-88024685D01*
X155300285Y-88043907D01*
X155300275Y-88043909D01*
X155087244Y-88100990D01*
X155087235Y-88100994D01*
X154887344Y-88194204D01*
X154887342Y-88194205D01*
X154706668Y-88320713D01*
X154550713Y-88476668D01*
X154424205Y-88657342D01*
X154424204Y-88657344D01*
X154330994Y-88857235D01*
X154330990Y-88857244D01*
X154273909Y-89070275D01*
X154273907Y-89070285D01*
X154254685Y-89289998D01*
X154254685Y-89290001D01*
X154273907Y-89509714D01*
X154273909Y-89509724D01*
X154330990Y-89722755D01*
X154330995Y-89722769D01*
X154424203Y-89922654D01*
X154424207Y-89922662D01*
X154550712Y-90103330D01*
X154706669Y-90259287D01*
X154887337Y-90385792D01*
X154887339Y-90385793D01*
X154887342Y-90385795D01*
X154902176Y-90392712D01*
X155087230Y-90479004D01*
X155087232Y-90479004D01*
X155087237Y-90479007D01*
X155300280Y-90536092D01*
X155457222Y-90549822D01*
X155519998Y-90555315D01*
X155520000Y-90555315D01*
X155520002Y-90555315D01*
X155575059Y-90550498D01*
X155739720Y-90536092D01*
X155952763Y-90479007D01*
X156152658Y-90385795D01*
X156333329Y-90259288D01*
X156489288Y-90103329D01*
X156615795Y-89922658D01*
X156677895Y-89789481D01*
X156724064Y-89737047D01*
X156791258Y-89717894D01*
X156858139Y-89738109D01*
X156902657Y-89789485D01*
X156964638Y-89922402D01*
X157009694Y-89986750D01*
X157680000Y-89316445D01*
X157680000Y-89340028D01*
X157705896Y-89436675D01*
X157755924Y-89523325D01*
X157826675Y-89594076D01*
X157913325Y-89644104D01*
X158009972Y-89670000D01*
X158033553Y-89670000D01*
X157363247Y-90340304D01*
X157427593Y-90385359D01*
X157627406Y-90478533D01*
X157627412Y-90478536D01*
X157840365Y-90535597D01*
X157840373Y-90535598D01*
X158059998Y-90554813D01*
X158060002Y-90554813D01*
X158279626Y-90535598D01*
X158279634Y-90535597D01*
X158492587Y-90478536D01*
X158492598Y-90478532D01*
X158692402Y-90385362D01*
X158692410Y-90385358D01*
X158756751Y-90340305D01*
X158756751Y-90340304D01*
X158086448Y-89670000D01*
X158110028Y-89670000D01*
X158206675Y-89644104D01*
X158293325Y-89594076D01*
X158364076Y-89523325D01*
X158414104Y-89436675D01*
X158440000Y-89340028D01*
X158440000Y-89316446D01*
X159110304Y-89986750D01*
X159139023Y-89945737D01*
X159193600Y-89902112D01*
X159263098Y-89894918D01*
X159325453Y-89926441D01*
X159358304Y-89977855D01*
X159405186Y-90119334D01*
X159497288Y-90268656D01*
X159621344Y-90392712D01*
X159770666Y-90484814D01*
X159937203Y-90539999D01*
X160039991Y-90550500D01*
X161160008Y-90550499D01*
X161262797Y-90539999D01*
X161429334Y-90484814D01*
X161578656Y-90392712D01*
X161702712Y-90268656D01*
X161794814Y-90119334D01*
X161849999Y-89952797D01*
X161860500Y-89850009D01*
X161860499Y-88729992D01*
X161853103Y-88657594D01*
X161849999Y-88627203D01*
X161849998Y-88627200D01*
X161794814Y-88460666D01*
X161702712Y-88311344D01*
X161578656Y-88187288D01*
X161438752Y-88100995D01*
X161429336Y-88095187D01*
X161429331Y-88095185D01*
X161427862Y-88094698D01*
X161262797Y-88040001D01*
X161262795Y-88040000D01*
X161160016Y-88029500D01*
X160093576Y-88029500D01*
X160026537Y-88009815D01*
X159980782Y-87957011D01*
X159970838Y-87887853D01*
X159999863Y-87824297D01*
X160022442Y-87803933D01*
X160143329Y-87719288D01*
X160299288Y-87563329D01*
X160425795Y-87382658D01*
X160519007Y-87182763D01*
X160576092Y-86969720D01*
X160595315Y-86750000D01*
X160576092Y-86530280D01*
X160519007Y-86317237D01*
X160425795Y-86117343D01*
X160299288Y-85936671D01*
X160299286Y-85936668D01*
X160143330Y-85780712D01*
X159962662Y-85654207D01*
X159962654Y-85654203D01*
X159762769Y-85560995D01*
X159762755Y-85560990D01*
X159549724Y-85503909D01*
X159549722Y-85503908D01*
X159549720Y-85503908D01*
X159549718Y-85503907D01*
X159549714Y-85503907D01*
X159330002Y-85484685D01*
X159329998Y-85484685D01*
X159110285Y-85503907D01*
X159110275Y-85503909D01*
X158897244Y-85560990D01*
X158897235Y-85560994D01*
X158697344Y-85654204D01*
X158697342Y-85654205D01*
X158516668Y-85780713D01*
X158360713Y-85936668D01*
X158234205Y-86117342D01*
X158234204Y-86117344D01*
X158172382Y-86249923D01*
X158126210Y-86302362D01*
X158059016Y-86321514D01*
X157992135Y-86301298D01*
X157947618Y-86249923D01*
X157885795Y-86117343D01*
X157759288Y-85936671D01*
X157759286Y-85936668D01*
X157603330Y-85780712D01*
X157422662Y-85654207D01*
X157422654Y-85654203D01*
X157222769Y-85560995D01*
X157222755Y-85560990D01*
X157009724Y-85503909D01*
X157009722Y-85503908D01*
X157009720Y-85503908D01*
X157009718Y-85503907D01*
X157009714Y-85503907D01*
X156790002Y-85484685D01*
X156789998Y-85484685D01*
X156570285Y-85503907D01*
X156570275Y-85503909D01*
X156357244Y-85560990D01*
X156357235Y-85560994D01*
X156157344Y-85654204D01*
X156157342Y-85654205D01*
X155976668Y-85780713D01*
X155820713Y-85936668D01*
X155694205Y-86117342D01*
X155694204Y-86117344D01*
X155632106Y-86250515D01*
X155585934Y-86302954D01*
X155518740Y-86322106D01*
X155451859Y-86301890D01*
X155407342Y-86250515D01*
X155345360Y-86117595D01*
X155345359Y-86117593D01*
X155300304Y-86053248D01*
X155300304Y-86053247D01*
X154630000Y-86723551D01*
X154630000Y-86699972D01*
X154604104Y-86603325D01*
X154554076Y-86516675D01*
X154483325Y-86445924D01*
X154396675Y-86395896D01*
X154300028Y-86370000D01*
X154276447Y-86370000D01*
X154946751Y-85699694D01*
X154882402Y-85654638D01*
X154682593Y-85561466D01*
X154682587Y-85561463D01*
X154469634Y-85504402D01*
X154469626Y-85504401D01*
X154250002Y-85485187D01*
X154249998Y-85485187D01*
X154030373Y-85504401D01*
X154030366Y-85504402D01*
X153817404Y-85561466D01*
X153617594Y-85654640D01*
X153553248Y-85699694D01*
X154223554Y-86370000D01*
X154199972Y-86370000D01*
X154103325Y-86395896D01*
X154016675Y-86445924D01*
X153945924Y-86516675D01*
X153895896Y-86603325D01*
X153870000Y-86699972D01*
X153870000Y-86723554D01*
X153199694Y-86053248D01*
X153154640Y-86117594D01*
X153061466Y-86317404D01*
X153004402Y-86530366D01*
X153004401Y-86530373D01*
X152985187Y-86749998D01*
X149881500Y-86749998D01*
X149881500Y-80277065D01*
X150464500Y-80277065D01*
X150464500Y-80522934D01*
X150487093Y-80694532D01*
X150496591Y-80766677D01*
X150557832Y-80995232D01*
X150560222Y-81004152D01*
X150560225Y-81004162D01*
X150625264Y-81161179D01*
X150654306Y-81231292D01*
X150777233Y-81444208D01*
X150777235Y-81444211D01*
X150777236Y-81444212D01*
X150926897Y-81639254D01*
X150926903Y-81639261D01*
X151100738Y-81813096D01*
X151100744Y-81813101D01*
X151295792Y-81962767D01*
X151508708Y-82085694D01*
X151735847Y-82179778D01*
X151973323Y-82243409D01*
X152217073Y-82275500D01*
X152217080Y-82275500D01*
X152462920Y-82275500D01*
X152462927Y-82275500D01*
X152706677Y-82243409D01*
X152944153Y-82179778D01*
X153171292Y-82085694D01*
X153384208Y-81962767D01*
X153579256Y-81813101D01*
X153753101Y-81639256D01*
X153902767Y-81444208D01*
X154025694Y-81231292D01*
X154119778Y-81004153D01*
X154183409Y-80766677D01*
X154215500Y-80522927D01*
X154215500Y-80277073D01*
X154183409Y-80033323D01*
X154119778Y-79795847D01*
X154025694Y-79568708D01*
X153902767Y-79355792D01*
X153753101Y-79160744D01*
X153753096Y-79160738D01*
X153579261Y-78986903D01*
X153579254Y-78986897D01*
X153384212Y-78837236D01*
X153384211Y-78837235D01*
X153384208Y-78837233D01*
X153171292Y-78714306D01*
X153171285Y-78714303D01*
X152944162Y-78620225D01*
X152944155Y-78620223D01*
X152944153Y-78620222D01*
X152706677Y-78556591D01*
X152665939Y-78551227D01*
X152462934Y-78524500D01*
X152462927Y-78524500D01*
X152217073Y-78524500D01*
X152217065Y-78524500D01*
X151985059Y-78555045D01*
X151973323Y-78556591D01*
X151735847Y-78620222D01*
X151735837Y-78620225D01*
X151508714Y-78714303D01*
X151508705Y-78714307D01*
X151295787Y-78837236D01*
X151100745Y-78986897D01*
X151100738Y-78986903D01*
X150926903Y-79160738D01*
X150926897Y-79160745D01*
X150777236Y-79355787D01*
X150654307Y-79568705D01*
X150654303Y-79568714D01*
X150560225Y-79795837D01*
X150560222Y-79795847D01*
X150496592Y-80033320D01*
X150496590Y-80033331D01*
X150464500Y-80277065D01*
X149881500Y-80277065D01*
X149881500Y-79913180D01*
X149847625Y-79742876D01*
X149783499Y-79588065D01*
X149781856Y-79583473D01*
X149781175Y-79582453D01*
X149684706Y-79438077D01*
X149561923Y-79315294D01*
X149407367Y-79160738D01*
X148561927Y-78315296D01*
X148561926Y-78315295D01*
X148417543Y-78218822D01*
X148257128Y-78152377D01*
X148257118Y-78152374D01*
X148086823Y-78118500D01*
X148086821Y-78118500D01*
X148086820Y-78118500D01*
X146416491Y-78118500D01*
X146349452Y-78098815D01*
X146328810Y-78082181D01*
X144377819Y-76131189D01*
X144344334Y-76069866D01*
X144341500Y-76043508D01*
X144341500Y-75389048D01*
X144361185Y-75322009D01*
X144377814Y-75301371D01*
X144460047Y-75219139D01*
X144477272Y-75194539D01*
X144531848Y-75150913D01*
X144601346Y-75143718D01*
X144663701Y-75175239D01*
X144699116Y-75235468D01*
X144702138Y-75252406D01*
X144705908Y-75287483D01*
X144756202Y-75422328D01*
X144756206Y-75422335D01*
X144842452Y-75537544D01*
X144842455Y-75537547D01*
X144957664Y-75623793D01*
X144957671Y-75623797D01*
X145092517Y-75674091D01*
X145092516Y-75674091D01*
X145099444Y-75674835D01*
X145152127Y-75680500D01*
X146847872Y-75680499D01*
X146907483Y-75674091D01*
X147042331Y-75623796D01*
X147157546Y-75537546D01*
X147243796Y-75422331D01*
X147294091Y-75287483D01*
X147300500Y-75227873D01*
X147300499Y-73532128D01*
X147294091Y-73472517D01*
X147259567Y-73379954D01*
X147243797Y-73337671D01*
X147243793Y-73337664D01*
X147157547Y-73222455D01*
X147157544Y-73222452D01*
X147042335Y-73136206D01*
X147042328Y-73136202D01*
X146907482Y-73085908D01*
X146907483Y-73085908D01*
X146847883Y-73079501D01*
X146847881Y-73079500D01*
X146847873Y-73079500D01*
X146847864Y-73079500D01*
X145152129Y-73079500D01*
X145152123Y-73079501D01*
X145092516Y-73085908D01*
X144957671Y-73136202D01*
X144957664Y-73136206D01*
X144842455Y-73222452D01*
X144842452Y-73222455D01*
X144756206Y-73337664D01*
X144756202Y-73337671D01*
X144705908Y-73472516D01*
X144702137Y-73507596D01*
X144675398Y-73572146D01*
X144618006Y-73611994D01*
X144548180Y-73614487D01*
X144488092Y-73578834D01*
X144477273Y-73565462D01*
X144460045Y-73540858D01*
X144299141Y-73379954D01*
X144112734Y-73249432D01*
X144112732Y-73249431D01*
X143906497Y-73153261D01*
X143906488Y-73153258D01*
X143686697Y-73094366D01*
X143686693Y-73094365D01*
X143686692Y-73094365D01*
X143686691Y-73094364D01*
X143686686Y-73094364D01*
X143460002Y-73074532D01*
X143459998Y-73074532D01*
X143233313Y-73094364D01*
X143233302Y-73094366D01*
X143013511Y-73153258D01*
X143013502Y-73153261D01*
X142807267Y-73249431D01*
X142807265Y-73249432D01*
X142620858Y-73379954D01*
X142459954Y-73540858D01*
X142329433Y-73727264D01*
X142329432Y-73727266D01*
X142329315Y-73727518D01*
X142302106Y-73785867D01*
X142255933Y-73838306D01*
X142188739Y-73857457D01*
X142121858Y-73837241D01*
X142077342Y-73785865D01*
X142050135Y-73727520D01*
X142050134Y-73727518D01*
X141919657Y-73541179D01*
X141758820Y-73380342D01*
X141572482Y-73249865D01*
X141366328Y-73153734D01*
X141170000Y-73101127D01*
X141170000Y-74064314D01*
X141165606Y-74059920D01*
X141074394Y-74007259D01*
X140972661Y-73980000D01*
X140867339Y-73980000D01*
X140765606Y-74007259D01*
X140674394Y-74059920D01*
X140670000Y-74064314D01*
X140670000Y-73101127D01*
X140473671Y-73153734D01*
X140267517Y-73249865D01*
X140081179Y-73380342D01*
X139920342Y-73541179D01*
X139789867Y-73727515D01*
X139762657Y-73785867D01*
X139716484Y-73838306D01*
X139649290Y-73857457D01*
X139582409Y-73837241D01*
X139537893Y-73785865D01*
X139510685Y-73727518D01*
X139510568Y-73727266D01*
X139380047Y-73540861D01*
X139380045Y-73540858D01*
X139219141Y-73379954D01*
X139032734Y-73249432D01*
X139032732Y-73249431D01*
X138826497Y-73153261D01*
X138826488Y-73153258D01*
X138606697Y-73094366D01*
X138606693Y-73094365D01*
X138606692Y-73094365D01*
X138606691Y-73094364D01*
X138606686Y-73094364D01*
X138380002Y-73074532D01*
X138379998Y-73074532D01*
X138153313Y-73094364D01*
X138153302Y-73094366D01*
X137933511Y-73153258D01*
X137933502Y-73153261D01*
X137727267Y-73249431D01*
X137727265Y-73249432D01*
X137540858Y-73379954D01*
X137379954Y-73540858D01*
X137249432Y-73727265D01*
X137249431Y-73727267D01*
X137153261Y-73933502D01*
X137153258Y-73933511D01*
X137094366Y-74153302D01*
X137094364Y-74153313D01*
X137074532Y-74379998D01*
X131920499Y-74379998D01*
X131920499Y-73532128D01*
X131914091Y-73472517D01*
X131879567Y-73379954D01*
X131863797Y-73337671D01*
X131863793Y-73337664D01*
X131777547Y-73222455D01*
X131777544Y-73222452D01*
X131662335Y-73136206D01*
X131662328Y-73136202D01*
X131527482Y-73085908D01*
X131527483Y-73085908D01*
X131467883Y-73079501D01*
X131467881Y-73079500D01*
X131467873Y-73079500D01*
X131467864Y-73079500D01*
X129772129Y-73079500D01*
X129772123Y-73079501D01*
X129712516Y-73085908D01*
X129577671Y-73136202D01*
X129577664Y-73136206D01*
X129462455Y-73222452D01*
X129462452Y-73222455D01*
X129376206Y-73337664D01*
X129376202Y-73337671D01*
X129325908Y-73472516D01*
X129322137Y-73507596D01*
X129295398Y-73572146D01*
X129238006Y-73611994D01*
X129168180Y-73614487D01*
X129108092Y-73578834D01*
X129097273Y-73565462D01*
X129080045Y-73540858D01*
X128919141Y-73379954D01*
X128732734Y-73249432D01*
X128732732Y-73249431D01*
X128526497Y-73153261D01*
X128526488Y-73153258D01*
X128306697Y-73094366D01*
X128306693Y-73094365D01*
X128306692Y-73094365D01*
X128306691Y-73094364D01*
X128306686Y-73094364D01*
X128080002Y-73074532D01*
X128079998Y-73074532D01*
X127853313Y-73094364D01*
X127853302Y-73094366D01*
X127633511Y-73153258D01*
X127633502Y-73153261D01*
X127427267Y-73249431D01*
X127427265Y-73249432D01*
X127240858Y-73379954D01*
X127079954Y-73540858D01*
X126949433Y-73727264D01*
X126949432Y-73727266D01*
X126949315Y-73727518D01*
X126922106Y-73785867D01*
X126875933Y-73838306D01*
X126808739Y-73857457D01*
X126741858Y-73837241D01*
X126697342Y-73785865D01*
X126670135Y-73727520D01*
X126670134Y-73727518D01*
X126539657Y-73541179D01*
X126378820Y-73380342D01*
X126192482Y-73249865D01*
X125986328Y-73153734D01*
X125790000Y-73101127D01*
X125790000Y-74064314D01*
X125785606Y-74059920D01*
X125694394Y-74007259D01*
X125592661Y-73980000D01*
X125487339Y-73980000D01*
X125385606Y-74007259D01*
X125294394Y-74059920D01*
X125290000Y-74064314D01*
X125290000Y-73101127D01*
X125093671Y-73153734D01*
X124887517Y-73249865D01*
X124701179Y-73380342D01*
X124540342Y-73541179D01*
X124409867Y-73727515D01*
X124382657Y-73785867D01*
X124336484Y-73838306D01*
X124269290Y-73857457D01*
X124202409Y-73837241D01*
X124157893Y-73785865D01*
X124130685Y-73727518D01*
X124130568Y-73727266D01*
X124000047Y-73540861D01*
X124000045Y-73540858D01*
X123839141Y-73379954D01*
X123652734Y-73249432D01*
X123652732Y-73249431D01*
X123446497Y-73153261D01*
X123446488Y-73153258D01*
X123226697Y-73094366D01*
X123226693Y-73094365D01*
X123226692Y-73094365D01*
X123226691Y-73094364D01*
X123226686Y-73094364D01*
X123000002Y-73074532D01*
X122999998Y-73074532D01*
X122773313Y-73094364D01*
X122773302Y-73094366D01*
X122553511Y-73153258D01*
X122553502Y-73153261D01*
X122347267Y-73249431D01*
X122347265Y-73249432D01*
X122160858Y-73379954D01*
X121999954Y-73540858D01*
X121869432Y-73727265D01*
X121869431Y-73727267D01*
X121773261Y-73933502D01*
X121773258Y-73933511D01*
X121714366Y-74153302D01*
X121714364Y-74153313D01*
X121694532Y-74379998D01*
X114500500Y-74379998D01*
X114500500Y-72624500D01*
X114520185Y-72557461D01*
X114572989Y-72511706D01*
X114624500Y-72500500D01*
X164375500Y-72500500D01*
X164442539Y-72520185D01*
G37*
G04 #@! TD.AperFunction*
M02*
