G04 #@! TF.GenerationSoftware,KiCad,Pcbnew,8.0.5*
G04 #@! TF.CreationDate,2025-01-11T16:28:32+01:00*
G04 #@! TF.ProjectId,P1_Extender,50315f45-7874-4656-9e64-65722e6b6963,rev?*
G04 #@! TF.SameCoordinates,Original*
G04 #@! TF.FileFunction,Legend,Bot*
G04 #@! TF.FilePolarity,Positive*
%FSLAX46Y46*%
G04 Gerber Fmt 4.6, Leading zero omitted, Abs format (unit mm)*
G04 Created by KiCad (PCBNEW 8.0.5) date 2025-01-11 16:28:32*
%MOMM*%
%LPD*%
G01*
G04 APERTURE LIST*
G04 Aperture macros list*
%AMRoundRect*
0 Rectangle with rounded corners*
0 $1 Rounding radius*
0 $2 $3 $4 $5 $6 $7 $8 $9 X,Y pos of 4 corners*
0 Add a 4 corners polygon primitive as box body*
4,1,4,$2,$3,$4,$5,$6,$7,$8,$9,$2,$3,0*
0 Add four circle primitives for the rounded corners*
1,1,$1+$1,$2,$3*
1,1,$1+$1,$4,$5*
1,1,$1+$1,$6,$7*
1,1,$1+$1,$8,$9*
0 Add four rect primitives between the rounded corners*
20,1,$1+$1,$2,$3,$4,$5,0*
20,1,$1+$1,$4,$5,$6,$7,0*
20,1,$1+$1,$6,$7,$8,$9,0*
20,1,$1+$1,$8,$9,$2,$3,0*%
G04 Aperture macros list end*
%ADD10C,1.600000*%
%ADD11O,1.600000X1.600000*%
%ADD12R,1.600000X1.600000*%
%ADD13R,2.000000X2.000000*%
%ADD14O,2.000000X1.600000*%
%ADD15C,3.250000*%
%ADD16RoundRect,0.250000X0.510000X0.510000X-0.510000X0.510000X-0.510000X-0.510000X0.510000X-0.510000X0*%
%ADD17C,1.520000*%
%ADD18R,1.700000X1.700000*%
%ADD19O,1.700000X1.700000*%
G04 APERTURE END LIST*
%LPC*%
D10*
X147000000Y-105080000D03*
D11*
X147000000Y-94920000D03*
D10*
X159500000Y-104910000D03*
D11*
X159500000Y-94750000D03*
D12*
X146000000Y-74380000D03*
D11*
X143460000Y-74380000D03*
X140920000Y-74380000D03*
X138380000Y-74380000D03*
X138380000Y-82000000D03*
X140920000Y-82000000D03*
X143460000Y-82000000D03*
X146000000Y-82000000D03*
D10*
X155450000Y-104910000D03*
D11*
X155450000Y-94750000D03*
D13*
X139000000Y-110000000D03*
D14*
X139000000Y-107460000D03*
X139000000Y-104920000D03*
X139000000Y-102380000D03*
X139000000Y-99840000D03*
X139000000Y-97300000D03*
X139000000Y-94760000D03*
X139000000Y-92220000D03*
X116140000Y-92220000D03*
X116140000Y-94760000D03*
X116140000Y-97300000D03*
X116140000Y-99840000D03*
X116140000Y-102380000D03*
X116140000Y-104920000D03*
X116140000Y-107460000D03*
X116140000Y-110000000D03*
D12*
X130620000Y-74380000D03*
D11*
X128080000Y-74380000D03*
X125540000Y-74380000D03*
X123000000Y-74380000D03*
X123000000Y-82000000D03*
X125540000Y-82000000D03*
X128080000Y-82000000D03*
X130620000Y-82000000D03*
D15*
X162500000Y-80400000D03*
X152340000Y-80400000D03*
D16*
X160600000Y-89290000D03*
D17*
X159330000Y-86750000D03*
X158060000Y-89290000D03*
X156790000Y-86750000D03*
X155520000Y-89290000D03*
X154250000Y-86750000D03*
D18*
X147000000Y-117000000D03*
D19*
X144460000Y-117000000D03*
%LPD*%
M02*
