M48
; DRILL file {KiCad 8.0.5} date 2025-01-11T16:28:51+0100
; FORMAT={-:-/ absolute / metric / decimal}
; #@! TF.CreationDate,2025-01-11T16:28:51+01:00
; #@! TF.GenerationSoftware,Kicad,Pcbnew,8.0.5
; #@! TF.FileFunction,Plated,1,2,PTH
FMAT,2
METRIC
; #@! TA.AperFunction,Plated,PTH,ComponentDrill
T1C0.760
; #@! TA.AperFunction,Plated,PTH,ComponentDrill
T2C0.800
; #@! TA.AperFunction,Plated,PTH,ComponentDrill
T3C1.000
%
G90
G05
T1
X154.25Y-86.75
X155.52Y-89.29
X156.79Y-86.75
X158.06Y-89.29
X159.33Y-86.75
X160.6Y-89.29
T2
X123.0Y-74.38
X123.0Y-82.0
X125.54Y-74.38
X125.54Y-82.0
X128.08Y-74.38
X128.08Y-82.0
X130.62Y-74.38
X130.62Y-82.0
X138.38Y-74.38
X138.38Y-82.0
X140.92Y-74.38
X140.92Y-82.0
X143.46Y-74.38
X143.46Y-82.0
X146.0Y-74.38
X146.0Y-82.0
X147.0Y-94.92
X147.0Y-105.08
X155.45Y-94.75
X155.45Y-104.91
X159.5Y-94.75
X159.5Y-104.91
T3
X116.14Y-92.22
X116.14Y-94.76
X116.14Y-97.3
X116.14Y-99.84
X116.14Y-102.38
X116.14Y-104.92
X116.14Y-107.46
X116.14Y-110.0
X139.0Y-92.22
X139.0Y-94.76
X139.0Y-97.3
X139.0Y-99.84
X139.0Y-102.38
X139.0Y-104.92
X139.0Y-107.46
X139.0Y-110.0
X144.46Y-117.0
X147.0Y-117.0
M30
