%TF.GenerationSoftware,KiCad,Pcbnew,8.0.5*%
%TF.CreationDate,2025-01-11T16:29:14+01:00*%
%TF.ProjectId,P1_Extender,50315f45-7874-4656-9e64-65722e6b6963,rev?*%
%TF.SameCoordinates,Original*%
%TF.FileFunction,Drillmap*%
%TF.FilePolarity,Positive*%
%FSLAX45Y45*%
G04 Gerber Fmt 4.5, Leading zero omitted, Abs format (unit mm)*
G04 Created by KiCad (PCBNEW 8.0.5) date 2025-01-11 16:29:14*
%MOMM*%
%LPD*%
G01*
G04 APERTURE LIST*
%ADD10C,0.050000*%
%ADD11C,0.200000*%
%ADD12C,0.325000*%
G04 APERTURE END LIST*
D10*
X16500000Y-11900000D02*
X11400000Y-11900000D01*
X11400000Y-7200000D01*
X16500000Y-7200000D01*
X16500000Y-11900000D01*
D11*
D12*
X15071500Y-7877500D02*
X15396500Y-8202500D01*
X15396500Y-7877500D02*
X15071500Y-8202500D01*
X16087500Y-7877500D02*
X16412500Y-8202500D01*
X16412500Y-7877500D02*
X16087500Y-8202500D01*
D11*
X11658277Y-12213984D02*
X11658277Y-12013984D01*
X11658277Y-12013984D02*
X11705896Y-12013984D01*
X11705896Y-12013984D02*
X11734467Y-12023508D01*
X11734467Y-12023508D02*
X11753515Y-12042555D01*
X11753515Y-12042555D02*
X11763039Y-12061603D01*
X11763039Y-12061603D02*
X11772562Y-12099698D01*
X11772562Y-12099698D02*
X11772562Y-12128269D01*
X11772562Y-12128269D02*
X11763039Y-12166365D01*
X11763039Y-12166365D02*
X11753515Y-12185412D01*
X11753515Y-12185412D02*
X11734467Y-12204460D01*
X11734467Y-12204460D02*
X11705896Y-12213984D01*
X11705896Y-12213984D02*
X11658277Y-12213984D01*
X11858277Y-12213984D02*
X11858277Y-12080650D01*
X11858277Y-12118746D02*
X11867801Y-12099698D01*
X11867801Y-12099698D02*
X11877324Y-12090174D01*
X11877324Y-12090174D02*
X11896372Y-12080650D01*
X11896372Y-12080650D02*
X11915420Y-12080650D01*
X11982086Y-12213984D02*
X11982086Y-12080650D01*
X11982086Y-12013984D02*
X11972562Y-12023508D01*
X11972562Y-12023508D02*
X11982086Y-12033031D01*
X11982086Y-12033031D02*
X11991610Y-12023508D01*
X11991610Y-12023508D02*
X11982086Y-12013984D01*
X11982086Y-12013984D02*
X11982086Y-12033031D01*
X12105896Y-12213984D02*
X12086848Y-12204460D01*
X12086848Y-12204460D02*
X12077324Y-12185412D01*
X12077324Y-12185412D02*
X12077324Y-12013984D01*
X12210658Y-12213984D02*
X12191610Y-12204460D01*
X12191610Y-12204460D02*
X12182086Y-12185412D01*
X12182086Y-12185412D02*
X12182086Y-12013984D01*
X12439229Y-12213984D02*
X12439229Y-12013984D01*
X12439229Y-12013984D02*
X12505896Y-12156841D01*
X12505896Y-12156841D02*
X12572562Y-12013984D01*
X12572562Y-12013984D02*
X12572562Y-12213984D01*
X12753515Y-12213984D02*
X12753515Y-12109222D01*
X12753515Y-12109222D02*
X12743991Y-12090174D01*
X12743991Y-12090174D02*
X12724943Y-12080650D01*
X12724943Y-12080650D02*
X12686848Y-12080650D01*
X12686848Y-12080650D02*
X12667801Y-12090174D01*
X12753515Y-12204460D02*
X12734467Y-12213984D01*
X12734467Y-12213984D02*
X12686848Y-12213984D01*
X12686848Y-12213984D02*
X12667801Y-12204460D01*
X12667801Y-12204460D02*
X12658277Y-12185412D01*
X12658277Y-12185412D02*
X12658277Y-12166365D01*
X12658277Y-12166365D02*
X12667801Y-12147317D01*
X12667801Y-12147317D02*
X12686848Y-12137793D01*
X12686848Y-12137793D02*
X12734467Y-12137793D01*
X12734467Y-12137793D02*
X12753515Y-12128269D01*
X12848753Y-12080650D02*
X12848753Y-12280650D01*
X12848753Y-12090174D02*
X12867801Y-12080650D01*
X12867801Y-12080650D02*
X12905896Y-12080650D01*
X12905896Y-12080650D02*
X12924943Y-12090174D01*
X12924943Y-12090174D02*
X12934467Y-12099698D01*
X12934467Y-12099698D02*
X12943991Y-12118746D01*
X12943991Y-12118746D02*
X12943991Y-12175888D01*
X12943991Y-12175888D02*
X12934467Y-12194936D01*
X12934467Y-12194936D02*
X12924943Y-12204460D01*
X12924943Y-12204460D02*
X12905896Y-12213984D01*
X12905896Y-12213984D02*
X12867801Y-12213984D01*
X12867801Y-12213984D02*
X12848753Y-12204460D01*
X13029705Y-12194936D02*
X13039229Y-12204460D01*
X13039229Y-12204460D02*
X13029705Y-12213984D01*
X13029705Y-12213984D02*
X13020182Y-12204460D01*
X13020182Y-12204460D02*
X13029705Y-12194936D01*
X13029705Y-12194936D02*
X13029705Y-12213984D01*
X13029705Y-12090174D02*
X13039229Y-12099698D01*
X13039229Y-12099698D02*
X13029705Y-12109222D01*
X13029705Y-12109222D02*
X13020182Y-12099698D01*
X13020182Y-12099698D02*
X13029705Y-12090174D01*
X13029705Y-12090174D02*
X13029705Y-12109222D01*
X11197500Y-12442500D02*
X11397500Y-12642500D01*
X11397500Y-12442500D02*
X11197500Y-12642500D01*
X11639229Y-12433984D02*
X11763039Y-12433984D01*
X11763039Y-12433984D02*
X11696372Y-12510174D01*
X11696372Y-12510174D02*
X11724943Y-12510174D01*
X11724943Y-12510174D02*
X11743991Y-12519698D01*
X11743991Y-12519698D02*
X11753515Y-12529222D01*
X11753515Y-12529222D02*
X11763039Y-12548269D01*
X11763039Y-12548269D02*
X11763039Y-12595888D01*
X11763039Y-12595888D02*
X11753515Y-12614936D01*
X11753515Y-12614936D02*
X11743991Y-12624460D01*
X11743991Y-12624460D02*
X11724943Y-12633984D01*
X11724943Y-12633984D02*
X11667801Y-12633984D01*
X11667801Y-12633984D02*
X11648753Y-12624460D01*
X11648753Y-12624460D02*
X11639229Y-12614936D01*
X11848753Y-12614936D02*
X11858277Y-12624460D01*
X11858277Y-12624460D02*
X11848753Y-12633984D01*
X11848753Y-12633984D02*
X11839229Y-12624460D01*
X11839229Y-12624460D02*
X11848753Y-12614936D01*
X11848753Y-12614936D02*
X11848753Y-12633984D01*
X11934467Y-12453031D02*
X11943991Y-12443508D01*
X11943991Y-12443508D02*
X11963039Y-12433984D01*
X11963039Y-12433984D02*
X12010658Y-12433984D01*
X12010658Y-12433984D02*
X12029705Y-12443508D01*
X12029705Y-12443508D02*
X12039229Y-12453031D01*
X12039229Y-12453031D02*
X12048753Y-12472079D01*
X12048753Y-12472079D02*
X12048753Y-12491127D01*
X12048753Y-12491127D02*
X12039229Y-12519698D01*
X12039229Y-12519698D02*
X11924943Y-12633984D01*
X11924943Y-12633984D02*
X12048753Y-12633984D01*
X12229705Y-12433984D02*
X12134467Y-12433984D01*
X12134467Y-12433984D02*
X12124943Y-12529222D01*
X12124943Y-12529222D02*
X12134467Y-12519698D01*
X12134467Y-12519698D02*
X12153515Y-12510174D01*
X12153515Y-12510174D02*
X12201134Y-12510174D01*
X12201134Y-12510174D02*
X12220182Y-12519698D01*
X12220182Y-12519698D02*
X12229705Y-12529222D01*
X12229705Y-12529222D02*
X12239229Y-12548269D01*
X12239229Y-12548269D02*
X12239229Y-12595888D01*
X12239229Y-12595888D02*
X12229705Y-12614936D01*
X12229705Y-12614936D02*
X12220182Y-12624460D01*
X12220182Y-12624460D02*
X12201134Y-12633984D01*
X12201134Y-12633984D02*
X12153515Y-12633984D01*
X12153515Y-12633984D02*
X12134467Y-12624460D01*
X12134467Y-12624460D02*
X12124943Y-12614936D01*
X12363039Y-12433984D02*
X12382086Y-12433984D01*
X12382086Y-12433984D02*
X12401134Y-12443508D01*
X12401134Y-12443508D02*
X12410658Y-12453031D01*
X12410658Y-12453031D02*
X12420182Y-12472079D01*
X12420182Y-12472079D02*
X12429705Y-12510174D01*
X12429705Y-12510174D02*
X12429705Y-12557793D01*
X12429705Y-12557793D02*
X12420182Y-12595888D01*
X12420182Y-12595888D02*
X12410658Y-12614936D01*
X12410658Y-12614936D02*
X12401134Y-12624460D01*
X12401134Y-12624460D02*
X12382086Y-12633984D01*
X12382086Y-12633984D02*
X12363039Y-12633984D01*
X12363039Y-12633984D02*
X12343991Y-12624460D01*
X12343991Y-12624460D02*
X12334467Y-12614936D01*
X12334467Y-12614936D02*
X12324943Y-12595888D01*
X12324943Y-12595888D02*
X12315420Y-12557793D01*
X12315420Y-12557793D02*
X12315420Y-12510174D01*
X12315420Y-12510174D02*
X12324943Y-12472079D01*
X12324943Y-12472079D02*
X12334467Y-12453031D01*
X12334467Y-12453031D02*
X12343991Y-12443508D01*
X12343991Y-12443508D02*
X12363039Y-12433984D01*
X12515420Y-12633984D02*
X12515420Y-12500650D01*
X12515420Y-12519698D02*
X12524943Y-12510174D01*
X12524943Y-12510174D02*
X12543991Y-12500650D01*
X12543991Y-12500650D02*
X12572563Y-12500650D01*
X12572563Y-12500650D02*
X12591610Y-12510174D01*
X12591610Y-12510174D02*
X12601134Y-12529222D01*
X12601134Y-12529222D02*
X12601134Y-12633984D01*
X12601134Y-12529222D02*
X12610658Y-12510174D01*
X12610658Y-12510174D02*
X12629705Y-12500650D01*
X12629705Y-12500650D02*
X12658277Y-12500650D01*
X12658277Y-12500650D02*
X12677324Y-12510174D01*
X12677324Y-12510174D02*
X12686848Y-12529222D01*
X12686848Y-12529222D02*
X12686848Y-12633984D01*
X12782086Y-12633984D02*
X12782086Y-12500650D01*
X12782086Y-12519698D02*
X12791610Y-12510174D01*
X12791610Y-12510174D02*
X12810658Y-12500650D01*
X12810658Y-12500650D02*
X12839229Y-12500650D01*
X12839229Y-12500650D02*
X12858277Y-12510174D01*
X12858277Y-12510174D02*
X12867801Y-12529222D01*
X12867801Y-12529222D02*
X12867801Y-12633984D01*
X12867801Y-12529222D02*
X12877324Y-12510174D01*
X12877324Y-12510174D02*
X12896372Y-12500650D01*
X12896372Y-12500650D02*
X12924943Y-12500650D01*
X12924943Y-12500650D02*
X12943991Y-12510174D01*
X12943991Y-12510174D02*
X12953515Y-12529222D01*
X12953515Y-12529222D02*
X12953515Y-12633984D01*
X13343991Y-12424460D02*
X13172563Y-12681603D01*
X13601134Y-12433984D02*
X13620182Y-12433984D01*
X13620182Y-12433984D02*
X13639229Y-12443508D01*
X13639229Y-12443508D02*
X13648753Y-12453031D01*
X13648753Y-12453031D02*
X13658277Y-12472079D01*
X13658277Y-12472079D02*
X13667801Y-12510174D01*
X13667801Y-12510174D02*
X13667801Y-12557793D01*
X13667801Y-12557793D02*
X13658277Y-12595888D01*
X13658277Y-12595888D02*
X13648753Y-12614936D01*
X13648753Y-12614936D02*
X13639229Y-12624460D01*
X13639229Y-12624460D02*
X13620182Y-12633984D01*
X13620182Y-12633984D02*
X13601134Y-12633984D01*
X13601134Y-12633984D02*
X13582086Y-12624460D01*
X13582086Y-12624460D02*
X13572563Y-12614936D01*
X13572563Y-12614936D02*
X13563039Y-12595888D01*
X13563039Y-12595888D02*
X13553515Y-12557793D01*
X13553515Y-12557793D02*
X13553515Y-12510174D01*
X13553515Y-12510174D02*
X13563039Y-12472079D01*
X13563039Y-12472079D02*
X13572563Y-12453031D01*
X13572563Y-12453031D02*
X13582086Y-12443508D01*
X13582086Y-12443508D02*
X13601134Y-12433984D01*
X13753515Y-12614936D02*
X13763039Y-12624460D01*
X13763039Y-12624460D02*
X13753515Y-12633984D01*
X13753515Y-12633984D02*
X13743991Y-12624460D01*
X13743991Y-12624460D02*
X13753515Y-12614936D01*
X13753515Y-12614936D02*
X13753515Y-12633984D01*
X13953515Y-12633984D02*
X13839229Y-12633984D01*
X13896372Y-12633984D02*
X13896372Y-12433984D01*
X13896372Y-12433984D02*
X13877325Y-12462555D01*
X13877325Y-12462555D02*
X13858277Y-12481603D01*
X13858277Y-12481603D02*
X13839229Y-12491127D01*
X14029706Y-12453031D02*
X14039229Y-12443508D01*
X14039229Y-12443508D02*
X14058277Y-12433984D01*
X14058277Y-12433984D02*
X14105896Y-12433984D01*
X14105896Y-12433984D02*
X14124944Y-12443508D01*
X14124944Y-12443508D02*
X14134467Y-12453031D01*
X14134467Y-12453031D02*
X14143991Y-12472079D01*
X14143991Y-12472079D02*
X14143991Y-12491127D01*
X14143991Y-12491127D02*
X14134467Y-12519698D01*
X14134467Y-12519698D02*
X14020182Y-12633984D01*
X14020182Y-12633984D02*
X14143991Y-12633984D01*
X14258277Y-12519698D02*
X14239229Y-12510174D01*
X14239229Y-12510174D02*
X14229706Y-12500650D01*
X14229706Y-12500650D02*
X14220182Y-12481603D01*
X14220182Y-12481603D02*
X14220182Y-12472079D01*
X14220182Y-12472079D02*
X14229706Y-12453031D01*
X14229706Y-12453031D02*
X14239229Y-12443508D01*
X14239229Y-12443508D02*
X14258277Y-12433984D01*
X14258277Y-12433984D02*
X14296372Y-12433984D01*
X14296372Y-12433984D02*
X14315420Y-12443508D01*
X14315420Y-12443508D02*
X14324944Y-12453031D01*
X14324944Y-12453031D02*
X14334467Y-12472079D01*
X14334467Y-12472079D02*
X14334467Y-12481603D01*
X14334467Y-12481603D02*
X14324944Y-12500650D01*
X14324944Y-12500650D02*
X14315420Y-12510174D01*
X14315420Y-12510174D02*
X14296372Y-12519698D01*
X14296372Y-12519698D02*
X14258277Y-12519698D01*
X14258277Y-12519698D02*
X14239229Y-12529222D01*
X14239229Y-12529222D02*
X14229706Y-12538746D01*
X14229706Y-12538746D02*
X14220182Y-12557793D01*
X14220182Y-12557793D02*
X14220182Y-12595888D01*
X14220182Y-12595888D02*
X14229706Y-12614936D01*
X14229706Y-12614936D02*
X14239229Y-12624460D01*
X14239229Y-12624460D02*
X14258277Y-12633984D01*
X14258277Y-12633984D02*
X14296372Y-12633984D01*
X14296372Y-12633984D02*
X14315420Y-12624460D01*
X14315420Y-12624460D02*
X14324944Y-12614936D01*
X14324944Y-12614936D02*
X14334467Y-12595888D01*
X14334467Y-12595888D02*
X14334467Y-12557793D01*
X14334467Y-12557793D02*
X14324944Y-12538746D01*
X14324944Y-12538746D02*
X14315420Y-12529222D01*
X14315420Y-12529222D02*
X14296372Y-12519698D01*
X14458277Y-12433984D02*
X14477325Y-12433984D01*
X14477325Y-12433984D02*
X14496372Y-12443508D01*
X14496372Y-12443508D02*
X14505896Y-12453031D01*
X14505896Y-12453031D02*
X14515420Y-12472079D01*
X14515420Y-12472079D02*
X14524944Y-12510174D01*
X14524944Y-12510174D02*
X14524944Y-12557793D01*
X14524944Y-12557793D02*
X14515420Y-12595888D01*
X14515420Y-12595888D02*
X14505896Y-12614936D01*
X14505896Y-12614936D02*
X14496372Y-12624460D01*
X14496372Y-12624460D02*
X14477325Y-12633984D01*
X14477325Y-12633984D02*
X14458277Y-12633984D01*
X14458277Y-12633984D02*
X14439229Y-12624460D01*
X14439229Y-12624460D02*
X14429706Y-12614936D01*
X14429706Y-12614936D02*
X14420182Y-12595888D01*
X14420182Y-12595888D02*
X14410658Y-12557793D01*
X14410658Y-12557793D02*
X14410658Y-12510174D01*
X14410658Y-12510174D02*
X14420182Y-12472079D01*
X14420182Y-12472079D02*
X14429706Y-12453031D01*
X14429706Y-12453031D02*
X14439229Y-12443508D01*
X14439229Y-12443508D02*
X14458277Y-12433984D01*
X14601134Y-12433984D02*
X14601134Y-12472079D01*
X14677325Y-12433984D02*
X14677325Y-12472079D01*
X14972563Y-12710174D02*
X14963039Y-12700650D01*
X14963039Y-12700650D02*
X14943991Y-12672079D01*
X14943991Y-12672079D02*
X14934468Y-12653031D01*
X14934468Y-12653031D02*
X14924944Y-12624460D01*
X14924944Y-12624460D02*
X14915420Y-12576841D01*
X14915420Y-12576841D02*
X14915420Y-12538746D01*
X14915420Y-12538746D02*
X14924944Y-12491127D01*
X14924944Y-12491127D02*
X14934468Y-12462555D01*
X14934468Y-12462555D02*
X14943991Y-12443508D01*
X14943991Y-12443508D02*
X14963039Y-12414936D01*
X14963039Y-12414936D02*
X14972563Y-12405412D01*
X15039229Y-12453031D02*
X15048753Y-12443508D01*
X15048753Y-12443508D02*
X15067801Y-12433984D01*
X15067801Y-12433984D02*
X15115420Y-12433984D01*
X15115420Y-12433984D02*
X15134468Y-12443508D01*
X15134468Y-12443508D02*
X15143991Y-12453031D01*
X15143991Y-12453031D02*
X15153515Y-12472079D01*
X15153515Y-12472079D02*
X15153515Y-12491127D01*
X15153515Y-12491127D02*
X15143991Y-12519698D01*
X15143991Y-12519698D02*
X15029706Y-12633984D01*
X15029706Y-12633984D02*
X15153515Y-12633984D01*
X15391610Y-12633984D02*
X15391610Y-12433984D01*
X15477325Y-12633984D02*
X15477325Y-12529222D01*
X15477325Y-12529222D02*
X15467801Y-12510174D01*
X15467801Y-12510174D02*
X15448753Y-12500650D01*
X15448753Y-12500650D02*
X15420182Y-12500650D01*
X15420182Y-12500650D02*
X15401134Y-12510174D01*
X15401134Y-12510174D02*
X15391610Y-12519698D01*
X15601134Y-12633984D02*
X15582087Y-12624460D01*
X15582087Y-12624460D02*
X15572563Y-12614936D01*
X15572563Y-12614936D02*
X15563039Y-12595888D01*
X15563039Y-12595888D02*
X15563039Y-12538746D01*
X15563039Y-12538746D02*
X15572563Y-12519698D01*
X15572563Y-12519698D02*
X15582087Y-12510174D01*
X15582087Y-12510174D02*
X15601134Y-12500650D01*
X15601134Y-12500650D02*
X15629706Y-12500650D01*
X15629706Y-12500650D02*
X15648753Y-12510174D01*
X15648753Y-12510174D02*
X15658277Y-12519698D01*
X15658277Y-12519698D02*
X15667801Y-12538746D01*
X15667801Y-12538746D02*
X15667801Y-12595888D01*
X15667801Y-12595888D02*
X15658277Y-12614936D01*
X15658277Y-12614936D02*
X15648753Y-12624460D01*
X15648753Y-12624460D02*
X15629706Y-12633984D01*
X15629706Y-12633984D02*
X15601134Y-12633984D01*
X15782087Y-12633984D02*
X15763039Y-12624460D01*
X15763039Y-12624460D02*
X15753515Y-12605412D01*
X15753515Y-12605412D02*
X15753515Y-12433984D01*
X15934468Y-12624460D02*
X15915420Y-12633984D01*
X15915420Y-12633984D02*
X15877325Y-12633984D01*
X15877325Y-12633984D02*
X15858277Y-12624460D01*
X15858277Y-12624460D02*
X15848753Y-12605412D01*
X15848753Y-12605412D02*
X15848753Y-12529222D01*
X15848753Y-12529222D02*
X15858277Y-12510174D01*
X15858277Y-12510174D02*
X15877325Y-12500650D01*
X15877325Y-12500650D02*
X15915420Y-12500650D01*
X15915420Y-12500650D02*
X15934468Y-12510174D01*
X15934468Y-12510174D02*
X15943991Y-12529222D01*
X15943991Y-12529222D02*
X15943991Y-12548269D01*
X15943991Y-12548269D02*
X15848753Y-12567317D01*
X16020182Y-12624460D02*
X16039230Y-12633984D01*
X16039230Y-12633984D02*
X16077325Y-12633984D01*
X16077325Y-12633984D02*
X16096372Y-12624460D01*
X16096372Y-12624460D02*
X16105896Y-12605412D01*
X16105896Y-12605412D02*
X16105896Y-12595888D01*
X16105896Y-12595888D02*
X16096372Y-12576841D01*
X16096372Y-12576841D02*
X16077325Y-12567317D01*
X16077325Y-12567317D02*
X16048753Y-12567317D01*
X16048753Y-12567317D02*
X16029706Y-12557793D01*
X16029706Y-12557793D02*
X16020182Y-12538746D01*
X16020182Y-12538746D02*
X16020182Y-12529222D01*
X16020182Y-12529222D02*
X16029706Y-12510174D01*
X16029706Y-12510174D02*
X16048753Y-12500650D01*
X16048753Y-12500650D02*
X16077325Y-12500650D01*
X16077325Y-12500650D02*
X16096372Y-12510174D01*
X16172563Y-12710174D02*
X16182087Y-12700650D01*
X16182087Y-12700650D02*
X16201134Y-12672079D01*
X16201134Y-12672079D02*
X16210658Y-12653031D01*
X16210658Y-12653031D02*
X16220182Y-12624460D01*
X16220182Y-12624460D02*
X16229706Y-12576841D01*
X16229706Y-12576841D02*
X16229706Y-12538746D01*
X16229706Y-12538746D02*
X16220182Y-12491127D01*
X16220182Y-12491127D02*
X16210658Y-12462555D01*
X16210658Y-12462555D02*
X16201134Y-12443508D01*
X16201134Y-12443508D02*
X16182087Y-12414936D01*
X16182087Y-12414936D02*
X16172563Y-12405412D01*
X16534468Y-12710174D02*
X16524944Y-12700650D01*
X16524944Y-12700650D02*
X16505896Y-12672079D01*
X16505896Y-12672079D02*
X16496372Y-12653031D01*
X16496372Y-12653031D02*
X16486849Y-12624460D01*
X16486849Y-12624460D02*
X16477325Y-12576841D01*
X16477325Y-12576841D02*
X16477325Y-12538746D01*
X16477325Y-12538746D02*
X16486849Y-12491127D01*
X16486849Y-12491127D02*
X16496372Y-12462555D01*
X16496372Y-12462555D02*
X16505896Y-12443508D01*
X16505896Y-12443508D02*
X16524944Y-12414936D01*
X16524944Y-12414936D02*
X16534468Y-12405412D01*
X16610658Y-12500650D02*
X16610658Y-12633984D01*
X16610658Y-12519698D02*
X16620182Y-12510174D01*
X16620182Y-12510174D02*
X16639230Y-12500650D01*
X16639230Y-12500650D02*
X16667801Y-12500650D01*
X16667801Y-12500650D02*
X16686849Y-12510174D01*
X16686849Y-12510174D02*
X16696372Y-12529222D01*
X16696372Y-12529222D02*
X16696372Y-12633984D01*
X16820182Y-12633984D02*
X16801134Y-12624460D01*
X16801134Y-12624460D02*
X16791611Y-12614936D01*
X16791611Y-12614936D02*
X16782087Y-12595888D01*
X16782087Y-12595888D02*
X16782087Y-12538746D01*
X16782087Y-12538746D02*
X16791611Y-12519698D01*
X16791611Y-12519698D02*
X16801134Y-12510174D01*
X16801134Y-12510174D02*
X16820182Y-12500650D01*
X16820182Y-12500650D02*
X16848754Y-12500650D01*
X16848754Y-12500650D02*
X16867801Y-12510174D01*
X16867801Y-12510174D02*
X16877325Y-12519698D01*
X16877325Y-12519698D02*
X16886849Y-12538746D01*
X16886849Y-12538746D02*
X16886849Y-12595888D01*
X16886849Y-12595888D02*
X16877325Y-12614936D01*
X16877325Y-12614936D02*
X16867801Y-12624460D01*
X16867801Y-12624460D02*
X16848754Y-12633984D01*
X16848754Y-12633984D02*
X16820182Y-12633984D01*
X16943992Y-12500650D02*
X17020182Y-12500650D01*
X16972563Y-12433984D02*
X16972563Y-12605412D01*
X16972563Y-12605412D02*
X16982087Y-12624460D01*
X16982087Y-12624460D02*
X17001134Y-12633984D01*
X17001134Y-12633984D02*
X17020182Y-12633984D01*
X17239230Y-12500650D02*
X17239230Y-12700650D01*
X17239230Y-12510174D02*
X17258277Y-12500650D01*
X17258277Y-12500650D02*
X17296373Y-12500650D01*
X17296373Y-12500650D02*
X17315420Y-12510174D01*
X17315420Y-12510174D02*
X17324944Y-12519698D01*
X17324944Y-12519698D02*
X17334468Y-12538746D01*
X17334468Y-12538746D02*
X17334468Y-12595888D01*
X17334468Y-12595888D02*
X17324944Y-12614936D01*
X17324944Y-12614936D02*
X17315420Y-12624460D01*
X17315420Y-12624460D02*
X17296373Y-12633984D01*
X17296373Y-12633984D02*
X17258277Y-12633984D01*
X17258277Y-12633984D02*
X17239230Y-12624460D01*
X17448754Y-12633984D02*
X17429706Y-12624460D01*
X17429706Y-12624460D02*
X17420182Y-12605412D01*
X17420182Y-12605412D02*
X17420182Y-12433984D01*
X17610658Y-12633984D02*
X17610658Y-12529222D01*
X17610658Y-12529222D02*
X17601135Y-12510174D01*
X17601135Y-12510174D02*
X17582087Y-12500650D01*
X17582087Y-12500650D02*
X17543992Y-12500650D01*
X17543992Y-12500650D02*
X17524944Y-12510174D01*
X17610658Y-12624460D02*
X17591611Y-12633984D01*
X17591611Y-12633984D02*
X17543992Y-12633984D01*
X17543992Y-12633984D02*
X17524944Y-12624460D01*
X17524944Y-12624460D02*
X17515420Y-12605412D01*
X17515420Y-12605412D02*
X17515420Y-12586365D01*
X17515420Y-12586365D02*
X17524944Y-12567317D01*
X17524944Y-12567317D02*
X17543992Y-12557793D01*
X17543992Y-12557793D02*
X17591611Y-12557793D01*
X17591611Y-12557793D02*
X17610658Y-12548269D01*
X17677325Y-12500650D02*
X17753515Y-12500650D01*
X17705896Y-12433984D02*
X17705896Y-12605412D01*
X17705896Y-12605412D02*
X17715420Y-12624460D01*
X17715420Y-12624460D02*
X17734468Y-12633984D01*
X17734468Y-12633984D02*
X17753515Y-12633984D01*
X17896373Y-12624460D02*
X17877325Y-12633984D01*
X17877325Y-12633984D02*
X17839230Y-12633984D01*
X17839230Y-12633984D02*
X17820182Y-12624460D01*
X17820182Y-12624460D02*
X17810658Y-12605412D01*
X17810658Y-12605412D02*
X17810658Y-12529222D01*
X17810658Y-12529222D02*
X17820182Y-12510174D01*
X17820182Y-12510174D02*
X17839230Y-12500650D01*
X17839230Y-12500650D02*
X17877325Y-12500650D01*
X17877325Y-12500650D02*
X17896373Y-12510174D01*
X17896373Y-12510174D02*
X17905896Y-12529222D01*
X17905896Y-12529222D02*
X17905896Y-12548269D01*
X17905896Y-12548269D02*
X17810658Y-12567317D01*
X18077325Y-12633984D02*
X18077325Y-12433984D01*
X18077325Y-12624460D02*
X18058277Y-12633984D01*
X18058277Y-12633984D02*
X18020182Y-12633984D01*
X18020182Y-12633984D02*
X18001135Y-12624460D01*
X18001135Y-12624460D02*
X17991611Y-12614936D01*
X17991611Y-12614936D02*
X17982087Y-12595888D01*
X17982087Y-12595888D02*
X17982087Y-12538746D01*
X17982087Y-12538746D02*
X17991611Y-12519698D01*
X17991611Y-12519698D02*
X18001135Y-12510174D01*
X18001135Y-12510174D02*
X18020182Y-12500650D01*
X18020182Y-12500650D02*
X18058277Y-12500650D01*
X18058277Y-12500650D02*
X18077325Y-12510174D01*
X18153516Y-12710174D02*
X18163039Y-12700650D01*
X18163039Y-12700650D02*
X18182087Y-12672079D01*
X18182087Y-12672079D02*
X18191611Y-12653031D01*
X18191611Y-12653031D02*
X18201135Y-12624460D01*
X18201135Y-12624460D02*
X18210658Y-12576841D01*
X18210658Y-12576841D02*
X18210658Y-12538746D01*
X18210658Y-12538746D02*
X18201135Y-12491127D01*
X18201135Y-12491127D02*
X18191611Y-12462555D01*
X18191611Y-12462555D02*
X18182087Y-12443508D01*
X18182087Y-12443508D02*
X18163039Y-12414936D01*
X18163039Y-12414936D02*
X18153516Y-12405412D01*
M02*
